<svg width="240" height="42" fill="none" xmlns="http://www.w3.org/2000/svg"><path d="M21.448 24.418v-.086h.048v.098l-.048-.012zm.048 0v-.05.05zm-.373 0v-.05.05zm0 0h-.049v-.086h.048v.086zm.686-.025l-.012-.085.084-.012.012.085-.084.012zm-1.048-.024l.012-.049-.012.049-.048-.012.012-.086.048.012-.012.086zm1.409-.037l-.024-.085.084-.025.024.086-.084.024zm-1.722-.024l-.096-.024.024-.086.084.024-.012.086zm2.071-.073l-.024-.074.036-.012.024.037.012.049h-.048zm-2.456-.05l.012-.048-.012.049-.036-.012.024-.086.036.012-.024.086zm2.805-.072l-.036-.086.036-.024.036.085-.036.025zm-3.142-.061l.024-.037-.024.037-.036-.025.036-.085.036.024-.036.086zm3.467-.098l-.036-.085.084-.037.049.073-.097.049zm-3.756-.061l-.084-.049.048-.073.072.049-.036.073zm4.07-.134l-.049-.086.073-.049.048.074-.073.06zm-4.371-.061l-.072-.061.048-.074.072.05-.048.085zm4.66-.159l-.049-.073.072-.061.06.073-.084.061zm-4.985-.098l.036-.036-.036.036-.036-.024.06-.073.036.024-.06.073zm5.261-.146l-.06-.061.06-.061.06.06-.06.062zm-5.526-.122l.036-.037-.036.037-.036-.037.06-.06.036.036-.06.06zm5.767-.159l-.072-.06.024-.038.072.062-.024.036zm-5.972-.085l-.024-.037.036-.024-.036.024-.024-.037.06-.06.06.073-.072.06zm6.189-.208l-.072-.049.048-.073.072.049-.024.037-.036-.025.036.025-.024.036zm-6.405-.085l-.025-.037.037-.024-.037.024-.024-.036.072-.05.049.074-.072.049zm6.598-.232l-.073-.049.048-.073.073.037-.049.085zm-6.78-.098l-.035-.085.084-.037.036.086-.084.036zm6.936-.232l-.084-.036.036-.086.084.037-.036.085zm-7.104-.146l.049-.012-.049.012-.012-.049.084-.037.013.037-.085.049zm7.236-.195l-.084-.025.024-.085.084.024-.024.086zm-7.332-.11l-.024-.098.084-.024.024.085-.084.037zm7.429-.257l-.085-.012.012-.049h.049l.048.013-.024.048zm-7.525-.146l.048-.012-.048.012-.012-.049.084-.012.012.049-.084.012zm7.585-.207L25.084 21l.012-.085.084.012-.012.086zm-7.633-.16h.048-.048v-.048l.084-.012v.049l-.084.012zm7.657-.219l-.084-.012v-.098h.096l-.012.11zm-7.67-.11v-.097h.097v.097h-.096zm7.574-.268v-.049l.084-.012h-.048.048v.049l-.084.012zm-7.465-.085l-.084-.013.012-.097.084.012-.012.098zm7.429-.269l-.012-.049.084-.024-.048.012.048-.012.012.049-.084.024zm-7.369-.146h-.048l-.048-.013.012-.048.084.012v.049zm7.284-.208l-.024-.085.084-.025.025.098-.085.012zm-7.212-.085l-.084-.025.024-.085.084.024-.024.086zm7.116-.257l-.012-.036.084-.037-.048.012.048-.012.012.037-.084.036zm-6.995-.085l-.085-.037.037-.085.084.036-.036.086zm6.85-.256l-.036-.086.085-.049.036.086-.084.049zm-6.706-.074l-.072-.036.048-.086.072.05-.048.072zm6.538-.244l-.048-.073.072-.049.024.037-.036.024.036-.024.024.036-.072.05zm-6.357-.073l-.072-.049.024-.036.036.024-.036-.024.024-.037.072.049-.048.073zm6.152-.22l-.06-.073.072-.06.024.036-.036.024.036-.024.025.036-.06.061zm-5.911-.11l-.073-.06.024-.037.073.06-.024.038zm5.683-.17l-.037-.037.06-.061-.035.037.036-.025.024.037-.049.049zm-5.479-.061l-.06-.061.06-.061.06.06-.06.062zm5.226-.196l-.037-.024.06-.073-.035.036.036-.036.036.024-.06.073zm-4.973-.06l-.06-.074.072-.061.048.073-.06.061zm4.708-.172l-.072-.048.048-.074.072.061-.048.061zm-4.431-.048l-.048-.074.084-.048.048.073-.084.049zm4.13-.147l-.073-.049.049-.073.084.049-.06.073zm-3.829-.049l-.048-.073.084-.049.036.086-.072.036zm3.516-.134l-.036-.024.036-.086-.024.037.024-.037.036.025-.036.085zm-3.19-.037l-.037-.085.084-.037.036.086-.084.037zm2.865-.097l-.036-.012.024-.086-.012.049.012-.037.036.013-.024.073zm-2.493-.049l-.024-.037-.012-.048.036-.013.036.086-.036.012zm2.143-.061l-.084-.024.024-.086.097.025-.037.085zm-1.842-.024l-.024-.086.097-.024.024.085-.097.025zm1.505-.05l-.048-.011.012-.086-.012.049.012-.049.048.012-.012.086zm-1.155-.024l-.012-.085.096-.012.012.085-.096.012zm.794-.024h-.048v-.098h.048v.098zm-.397-.012v-.098h.048v.085l-.048.013zm.361-.037v-.049.05zm-.361 0v-.049.05zM21.291 21.794v-.05.05zm0 0h-.048v-.086h.048v.086zm.325-.025l-.024-.085.036-.012.012.049.012.048h-.036zm-.686-.048l.012-.05-.012.05-.048-.013.024-.085.048.012-.024.085zm1.035-.074l-.048-.073.036-.024.048.073-.036.024zm-1.324-.085l-.072-.061.06-.073.072.06-.06.074zm1.613-.147l-.072-.06.06-.074.072.061-.06.073zm-1.89-.122l-.06-.073.072-.049.048.073-.06.05zm2.107-.195l-.084-.037.012-.036.048.012.036.024-.012.037zm-2.3-.17l.048-.013-.048.012-.012-.049.085-.036.012.036-.085.05zm2.42-.184l-.084-.012.012-.049h.048l.048.012-.048-.012.048.012-.024.05zm-2.432-.195h-.048V20.5h.084v.049h-.036zm2.36-.171l-.012-.049.084-.024-.048.012.048-.012.012.049-.084.024zm-2.263-.183l-.049-.012-.048-.012.012-.037.085.024v.037zm2.167-.147l-.036-.085.084-.049.036.086-.084.048zm-2.047-.134l-.072-.049.024-.036.036.024-.036-.024.024-.037.072.049-.048.073zm1.854-.159l-.06-.06.06-.061.036.036-.036.037.036-.025.024.037-.06.037zm-1.637-.097l-.06-.073.072-.061.048.073-.06.06zm1.372-.134l-.036-.025.036-.085-.024.036.024-.036.036.024-.036.086zm-1.035-.086l-.024-.036-.012-.05.036-.011.036.073-.036.024zm.722-.049l-.048-.012v-.049l.012-.049-.012.05.012-.05.048.013-.012.097zm-.385-.024l-.012-.049v-.049h.048l.012.086-.048.012z" fill="#fff"/><path d="M31.935 21.232h-1.253c.205-.354.41-.683.614-1.013-.204-.341-.409-.671-.614-1.013h1.253c.204.342.409.672.614 1.013-.205.33-.422.671-.614 1.013zM35.282 21.513c-.205.342-.41.671-.614 1.013.204.342.409.683.614 1.013H34.03c-.193-.33-.398-.671-.602-1.013.204-.33.409-.671.614-1.025.409.012.818.012 1.24.012zM31.224 22.526c.205.33.397.671.602 1.013h-1.252c-.193-.33-.397-.671-.602-1.013.205-.342.397-.696.614-1.025h1.252c-.204.354-.41.695-.614 1.025z" fill="#A1A1A1"/><path d="M35.751 21.513h1.252l-.614 1.025c.205.33.398.671.614 1.013h-1.252c-.192-.33-.397-.671-.602-1.013.193-.342.398-.683.602-1.025zM30.2 19.182c.217.33.41.671.615 1.013-.205.354-.41.695-.614 1.025h-1.253l.614-1.025c-.204-.33-.397-.66-.602-.989v-.012l.013-.012H30.2zM32.392 19.194h1.252c.205.33.397.671.614 1.013-.205.33-.41.671-.614 1.013h-1.252l.614-1.025c-.205-.33-.397-.66-.614-1zM32.946 22.538c.193.33.397.66.59.989 0 .012 0 .012-.012.012l-.012.012h-1.204c-.024-.024-.048-.06-.072-.085-.181-.318-.374-.623-.554-.928.204-.342.409-.683.614-1.013h1.252c-.193.342-.398.671-.602 1.013z" fill="#A1A1A1"/><path d="M27.817 20.158c-.049-.073-.085-.122-.12-.171-.157-.256-.302-.525-.458-.793h1.252c.205.33.41.671.614 1.013-.205.341-.41.683-.614 1.013h-1.24c.048-.098.096-.183.144-.269.109-.17.217-.342.313-.525.024-.048.06-.097.097-.158.012-.037.012-.073.012-.11z" fill="#A1A1A1"/><path d="M28.455 15.252c1.03 0 1.866-.847 1.866-1.892 0-1.044-.836-1.891-1.866-1.891-1.03 0-1.866.847-1.866 1.891 0 1.045.835 1.892 1.866 1.892zM24.421 14.642c.865 0 1.566-.71 1.566-1.587 0-.876-.701-1.586-1.566-1.586-.864 0-1.565.71-1.565 1.586 0 .876.701 1.587 1.565 1.587zM18.16 14.642c.865 0 1.566-.71 1.566-1.587 0-.876-.701-1.586-1.566-1.586-.864 0-1.565.71-1.565 1.586 0 .876.701 1.587 1.565 1.587zM14.067 19.035c.864 0 1.565-.71 1.565-1.586 0-.876-.7-1.587-1.565-1.587-.864 0-1.565.71-1.565 1.587 0 .876.7 1.586 1.565 1.586zM14.067 25.26c.864 0 1.565-.71 1.565-1.587 0-.876-.7-1.586-1.565-1.586-.864 0-1.565.71-1.565 1.586 0 .877.7 1.587 1.565 1.587zM24.421 29.776c.865 0 1.566-.71 1.566-1.587 0-.876-.701-1.587-1.566-1.587-.864 0-1.565.71-1.565 1.587 0 .876.701 1.587 1.565 1.587zM18.16 29.776c.865 0 1.566-.71 1.566-1.587 0-.876-.701-1.587-1.566-1.587-.864 0-1.565.71-1.565 1.587 0 .876.701 1.587 1.565 1.587zM21.351 12.2c1.03 0 1.866-.846 1.866-1.89 0-1.046-.835-1.893-1.866-1.893-1.03 0-1.866.847-1.866 1.892s.835 1.892 1.866 1.892zM14.248 15.252c1.03 0 1.866-.847 1.866-1.892 0-1.044-.836-1.891-1.866-1.891-1.031 0-1.867.847-1.867 1.891 0 1.045.836 1.892 1.867 1.892zM28.455 29.532c1.03 0 1.866-.848 1.866-1.892 0-1.045-.836-1.892-1.866-1.892-1.03 0-1.866.847-1.866 1.892 0 1.044.835 1.892 1.866 1.892zM21.351 32.583c1.03 0 1.866-.847 1.866-1.892s-.835-1.892-1.866-1.892c-1.03 0-1.866.847-1.866 1.892s.835 1.892 1.866 1.892zM14.248 29.532c1.03 0 1.866-.848 1.866-1.892 0-1.045-.836-1.892-1.866-1.892-1.031 0-1.867.847-1.867 1.892 0 1.044.836 1.892 1.867 1.892zM11.358 22.33c1.03 0 1.866-.846 1.866-1.891s-.835-1.892-1.866-1.892c-1.03 0-1.866.847-1.866 1.892s.835 1.892 1.866 1.892zM25.445 17.327a.91.91 0 00.903-.916.91.91 0 00-.903-.915.91.91 0 00-.903.915.91.91 0 00.903.916zM21.351 15.618a.91.91 0 00.903-.915.91.91 0 00-.903-.916.91.91 0 00-.903.916.91.91 0 00.903.915zM17.378 17.327a.91.91 0 00.903-.916.91.91 0 00-.903-.915.91.91 0 00-.903.915.91.91 0 00.903.916zM15.692 21.354a.91.91 0 00.903-.915.91.91 0 00-.903-.915.91.91 0 00-.903.915.91.91 0 00.903.915zM9.371 26.236a.849.849 0 00.843-.854.849.849 0 00-.843-.854.849.849 0 00-.843.854c0 .472.378.854.843.854zM16.114 33.437a.849.849 0 00.843-.854.849.849 0 00-.843-.855.849.849 0 00-.843.855c0 .471.377.854.843.854zM26.227 33.437a.849.849 0 00.843-.854.849.849 0 00-.843-.855.849.849 0 00-.843.855c0 .471.378.854.843.854zM16.114 9.15a.849.849 0 00.843-.855.849.849 0 00-.843-.854.849.849 0 00-.843.854c0 .472.377.855.843.855zM31.465 11.346a1.03 1.03 0 001.023-1.037 1.03 1.03 0 00-1.023-1.037 1.03 1.03 0 00-1.024 1.037 1.03 1.03 0 001.024 1.037zM31.465 31.85a1.03 1.03 0 001.023-1.037 1.03 1.03 0 00-1.023-1.037 1.03 1.03 0 00-1.024 1.037 1.03 1.03 0 001.024 1.037zM11.358 11.346a1.03 1.03 0 001.023-1.037 1.03 1.03 0 00-1.023-1.037 1.03 1.03 0 00-1.024 1.037 1.03 1.03 0 001.024 1.037zM7.023 21.476a1.03 1.03 0 001.024-1.037 1.03 1.03 0 00-1.024-1.037A1.03 1.03 0 006 20.439a1.03 1.03 0 001.023 1.037zM21.351 7.075a1.03 1.03 0 001.024-1.038A1.03 1.03 0 0021.35 5a1.03 1.03 0 00-1.023 1.037 1.03 1.03 0 001.023 1.038zM21.351 36a1.03 1.03 0 001.024-1.037 1.03 1.03 0 00-1.024-1.038 1.03 1.03 0 00-1.023 1.038A1.03 1.03 0 0021.35 36zM11.358 31.85a1.03 1.03 0 001.023-1.037 1.03 1.03 0 00-1.023-1.037 1.03 1.03 0 00-1.024 1.037 1.03 1.03 0 001.024 1.037zM26.227 9.15a.849.849 0 00.843-.855.849.849 0 00-.843-.854.849.849 0 00-.843.854c0 .472.378.855.843.855zM9.371 16.106a.849.849 0 00.843-.854.849.849 0 00-.843-.854.849.849 0 00-.843.854c0 .472.378.854.843.854zM25.445 25.504a.91.91 0 00.903-.915.91.91 0 00-.903-.916.91.91 0 00-.903.916.91.91 0 00.903.915zM21.351 27.213a.91.91 0 00.903-.916.91.91 0 00-.903-.915.91.91 0 00-.903.915.91.91 0 00.903.916zM17.378 25.504a.91.91 0 00.903-.915.91.91 0 00-.903-.916.91.91 0 00-.903.916.91.91 0 00.903.915zM21.351 20.866a.303.303 0 00.301-.305.303.303 0 00-.3-.305.303.303 0 00-.302.305c0 .169.135.305.301.305z" fill="#fff"/><path d="M21.411 20.561h3.372l2.408-2.44h7.585l3.371 3.416H42" stroke="#A1A1A1" stroke-width=".1" stroke-miterlimit="10"/><circle cx="21" cy="21" r="20.6" stroke="#fff" stroke-width=".8"/><path d="M67.313 14.065c.19.122.302.28.334.477.032.182-.016.363-.144.545a.603.603 0 01-.43.227.958.958 0 01-.501-.091 8.103 8.103 0 00-1.96-.885 7.486 7.486 0 00-2.223-.318 7.36 7.36 0 00-2.724.5 6.167 6.167 0 00-2.175 1.407 6.478 6.478 0 00-1.458 2.156c-.335.832-.502 1.748-.502 2.746 0 1.03.175 1.967.526 2.814.35.833.836 1.552 1.457 2.157a6.59 6.59 0 002.2 1.384c.828.318 1.72.477 2.676.477.78 0 1.514-.106 2.198-.318a8.662 8.662 0 001.96-.862c.16-.091.327-.121.502-.091a.597.597 0 01.454.25.586.586 0 01.144.544.614.614 0 01-.311.431c-.398.243-.868.47-1.41.681a10.22 10.22 0 01-1.72.5 8.26 8.26 0 01-1.817.204 8.761 8.761 0 01-3.226-.59 8.584 8.584 0 01-2.677-1.657 7.88 7.88 0 01-1.84-2.587c-.43-1-.646-2.111-.646-3.337 0-1.18.215-2.262.645-3.246a7.76 7.76 0 011.793-2.587 8.367 8.367 0 012.676-1.702 8.724 8.724 0 013.275-.613c.908 0 1.785.121 2.629.363.844.242 1.61.583 2.295 1.021zm14.323 8.898c0 1.15-.27 2.186-.812 3.11a5.852 5.852 0 01-2.151 2.155c-.909.515-1.936.772-3.084.772-1.131 0-2.158-.257-3.083-.772a6.039 6.039 0 01-2.175-2.156c-.526-.923-.788-1.96-.788-3.11 0-1.165.262-2.201.788-3.109a6.04 6.04 0 012.175-2.156c.925-.53 1.952-.794 3.083-.794 1.148 0 2.175.264 3.084.794a5.853 5.853 0 012.15 2.156c.543.908.813 1.944.813 3.11zm-1.433 0c0-.923-.2-1.74-.598-2.452a4.352 4.352 0 00-1.65-1.702c-.684-.424-1.473-.635-2.366-.635-.876 0-1.665.211-2.366.635a4.582 4.582 0 00-1.649 1.702c-.398.712-.597 1.529-.597 2.452s.199 1.74.597 2.45a4.818 4.818 0 001.65 1.703c.7.409 1.489.613 2.365.613.893 0 1.682-.204 2.367-.613a4.563 4.563 0 001.649-1.702c.398-.711.597-1.528.597-2.451zm9.863-5.879c.988 0 1.833.25 2.534.75.7.483 1.18 1.21 1.434 2.178l-.335.09.144-.408c.206-.454.55-.877 1.028-1.27a6.038 6.038 0 011.673-.977 5.16 5.16 0 011.888-.363c1.004 0 1.808.204 2.413.613a3.42 3.42 0 011.339 1.657c.287.68.43 1.452.43 2.315v6.423c0 .182-.071.34-.215.477a.655.655 0 01-.502.204.737.737 0 01-.526-.204.677.677 0 01-.191-.477v-6.355c0-.62-.104-1.188-.311-1.702a2.628 2.628 0 00-.98-1.226c-.446-.303-1.044-.454-1.792-.454-.653 0-1.282.151-1.888.454a4.153 4.153 0 00-1.459 1.226 2.872 2.872 0 00-.549 1.702v6.355c0 .182-.072.34-.215.477a.656.656 0 01-.502.204.736.736 0 01-.526-.204.675.675 0 01-.19-.477V21.67c0-.62-.097-1.18-.288-1.68-.19-.499-.501-.892-.932-1.18-.43-.303-1.012-.454-1.744-.454-.654 0-1.275.151-1.865.454a3.877 3.877 0 00-1.41 1.18c-.35.5-.525 1.06-.525 1.68v6.423c0 .182-.072.34-.215.477a.708.708 0 01-.503.204c-.223 0-.398-.068-.525-.204a.676.676 0 01-.192-.477V17.924c0-.182.064-.34.192-.477a.734.734 0 01.525-.204c.208 0 .375.068.503.204a.638.638 0 01.215.477v2.11l-.646.84c.048-.453.199-.907.454-1.361.271-.454.622-.863 1.052-1.226.43-.363.916-.65 1.457-.863a4.588 4.588 0 011.745-.34zm22.111-.181c1.083 0 2.039.257 2.868.771a5.543 5.543 0 012.007 2.134c.494.893.741 1.929.741 3.11 0 1.15-.247 2.186-.741 3.109a5.673 5.673 0 01-2.007 2.179c-.845.53-1.793.794-2.845.794a5.12 5.12 0 01-1.6-.25 5.872 5.872 0 01-1.363-.658 5.606 5.606 0 01-1.099-.998 4.976 4.976 0 01-.765-1.226l.43-.295v2.564a.664.664 0 01-.215.5.7.7 0 01-.502.181.785.785 0 01-.525-.181.702.702 0 01-.192-.5V12.681c0-.197.064-.356.192-.477.126-.136.302-.204.525-.204.207 0 .374.068.502.204.143.121.215.28.215.477v7.603l-.335-.181c.16-.47.391-.893.693-1.271a5.282 5.282 0 011.1-1.022 4.874 4.874 0 011.362-.658 4.833 4.833 0 011.554-.25zm-.12 1.27c-.86 0-1.617.205-2.27.613a4.39 4.39 0 00-1.554 1.68c-.366.711-.549 1.528-.549 2.451 0 .908.183 1.733.549 2.474.383.727.9 1.302 1.554 1.725.653.409 1.41.613 2.27.613.844 0 1.585-.212 2.223-.636a4.521 4.521 0 001.553-1.724 5.26 5.26 0 00.574-2.452c0-.923-.191-1.74-.574-2.451a4.388 4.388 0 00-1.553-1.68c-.638-.408-1.379-.612-2.223-.612zm10.076 9.92a.64.64 0 01-.215.476.708.708 0 01-.502.204.734.734 0 01-.526-.204.673.673 0 01-.191-.477v-10.44c0-.182.063-.34.191-.477a.733.733 0 01.526-.204c.206 0 .374.068.502.204a.64.64 0 01.215.476v10.441zm-.717-12.643c-.335 0-.59-.068-.765-.204-.16-.152-.239-.364-.239-.636v-.227c0-.272.088-.476.263-.613.191-.151.446-.227.765-.227.302 0 .533.076.693.227.175.136.262.34.262.613v.227c0 .273-.087.484-.262.636-.16.136-.399.204-.717.204zm10.201 1.453c1.053 0 1.889.204 2.511.612a3.27 3.27 0 011.362 1.634c.287.681.43 1.438.43 2.27v6.673a.64.64 0 01-.215.477.708.708 0 01-.502.204.673.673 0 01-.717-.68v-6.606c0-.605-.103-1.157-.311-1.656-.207-.5-.549-.9-1.028-1.203-.462-.303-1.075-.454-1.84-.454a4.42 4.42 0 00-1.96.454 4.203 4.203 0 00-1.482 1.203 2.663 2.663 0 00-.573 1.656v6.605a.64.64 0 01-.215.477.708.708 0 01-.502.204c-.223 0-.399-.068-.526-.204a.677.677 0 01-.191-.477V17.924c0-.182.064-.34.191-.477a.737.737 0 01.526-.204c.207 0 .374.068.502.204a.639.639 0 01.215.477v1.907l-.55.817c.032-.485.191-.946.478-1.385a4.927 4.927 0 011.147-1.203 5.334 5.334 0 011.53-.84 4.932 4.932 0 011.72-.317zM145.101 29c-1.228 0-2.311-.25-3.251-.749a5.481 5.481 0 01-2.199-2.088c-.525-.893-.789-1.937-.789-3.132 0-1.287.264-2.383.789-3.291.542-.908 1.235-1.604 2.079-2.088a5.35 5.35 0 012.725-.75c.701 0 1.378.122 2.032.364a4.903 4.903 0 011.768 1.044c.51.454.925 1.014 1.243 1.68.319.665.486 1.437.502 2.314a.64.64 0 01-.215.477.754.754 0 01-.502.182h-9.584l-.286-1.226h9.416l-.31.272v-.454c-.08-.71-.327-1.316-.742-1.815a4.02 4.02 0 00-1.505-1.135 4.395 4.395 0 00-1.817-.386c-.478 0-.972.09-1.482.272-.493.182-.948.47-1.362.863-.399.378-.725.87-.98 1.475-.255.59-.382 1.294-.382 2.11 0 .894.191 1.703.573 2.43a4.298 4.298 0 001.649 1.724c.717.424 1.586.636 2.605.636.542 0 1.037-.076 1.483-.227a4.372 4.372 0 001.17-.59c.351-.257.638-.522.861-.794.175-.137.342-.205.502-.205.175 0 .319.06.43.182a.55.55 0 01.191.408c0 .182-.08.34-.239.477-.478.545-1.099 1.021-1.864 1.43a5.407 5.407 0 01-2.509.59zM166.59 12c.239 0 .493.023.762.068.285.046.531.13.737.251a.53.53 0 01.31.501c0 .167-.064.32-.191.456a.604.604 0 01-.428.182c-.159 0-.357-.038-.594-.114a2.119 2.119 0 00-.762-.136c-.333 0-.619.076-.856.228a1.333 1.333 0 00-.548.615c-.126.258-.19.577-.19.957v13.08a.642.642 0 01-.214.479.65.65 0 01-.5.205.725.725 0 01-.522-.205.681.681 0 01-.191-.479v-13.08c0-.972.293-1.717.88-2.233.603-.517 1.372-.775 2.307-.775zm.904 5.355c.191 0 .35.061.477.183.127.121.19.273.19.455a.605.605 0 01-.19.456.663.663 0 01-.477.182h-5.828a.716.716 0 01-.475-.182.655.655 0 01-.191-.456c0-.197.064-.35.191-.455a.716.716 0 01.475-.183h5.828zm4.473 10.733a.645.645 0 01-.214.479.701.701 0 01-.5.205.728.728 0 01-.523-.205.681.681 0 01-.191-.479V17.607c0-.182.064-.342.191-.479a.728.728 0 01.523-.205.65.65 0 01.5.205.646.646 0 01.214.479v10.482zm-.714-12.693c-.333 0-.587-.068-.761-.205-.159-.152-.238-.364-.238-.638v-.228c0-.273.087-.478.262-.615.19-.152.444-.228.761-.228.301 0 .531.076.69.228.174.137.261.342.261.615v.228c0 .274-.087.486-.261.638-.159.137-.397.205-.714.205zm10.168 1.459c1.046 0 1.879.205 2.497.615a3.275 3.275 0 011.356 1.64c.285.685.428 1.444.428 2.28v6.7a.642.642 0 01-.214.478.7.7 0 01-.5.205c-.222 0-.396-.068-.523-.205a.685.685 0 01-.19-.479v-6.63c0-.608-.103-1.163-.31-1.664a2.568 2.568 0 00-1.022-1.208c-.46-.304-1.071-.456-1.832-.456-.682 0-1.332.152-1.95.456a4.176 4.176 0 00-1.476 1.208 2.691 2.691 0 00-.571 1.663v6.631a.642.642 0 01-.214.479.697.697 0 01-.499.205c-.222 0-.397-.068-.524-.205a.68.68 0 01-.19-.479V17.88a.68.68 0 01.19-.478.729.729 0 01.524-.205c.206 0 .373.068.499.205a.642.642 0 01.214.478v1.915l-.547.82c.032-.486.191-.95.476-1.39a4.936 4.936 0 011.142-1.208 5.263 5.263 0 011.523-.843 4.878 4.878 0 011.713-.32zm17.891.273a.65.65 0 01.5.206.666.666 0 01.214.5V28.09a.642.642 0 01-.214.478.7.7 0 01-.5.205c-.221 0-.396-.068-.523-.205a.681.681 0 01-.191-.479v-2.711l.405-.183c0 .426-.127.859-.381 1.3-.238.44-.571.85-.999 1.23-.428.38-.935.691-1.522.934a5.025 5.025 0 01-1.88.342c-1.062 0-2.021-.266-2.878-.798-.841-.531-1.506-1.26-1.998-2.187-.476-.927-.714-1.968-.714-3.122 0-1.185.246-2.226.738-3.122.491-.912 1.157-1.626 1.998-2.142.84-.517 1.784-.775 2.831-.775.681 0 1.316.114 1.903.342.603.228 1.126.539 1.57.934.444.395.793.85 1.047 1.367.253.502.38 1.026.38 1.573l-.5-.342v-2.894a.71.71 0 01.191-.502c.127-.136.302-.205.523-.205zm-4.948 10.597c.841 0 1.586-.205 2.237-.615a4.35 4.35 0 001.522-1.732c.381-.745.571-1.573.571-2.484 0-.896-.19-1.702-.571-2.416a4.389 4.389 0 00-1.522-1.709c-.651-.425-1.396-.638-2.237-.638a4.18 4.18 0 00-2.236.615 4.39 4.39 0 00-1.546 1.687c-.365.714-.547 1.534-.547 2.46 0 .912.182 1.74.547 2.485.364.729.872 1.306 1.522 1.732.667.41 1.419.615 2.26.615zm15.119-10.87c1.047 0 1.88.205 2.498.615a3.272 3.272 0 011.357 1.64c.285.685.428 1.444.428 2.28v6.7a.645.645 0 01-.214.478.701.701 0 01-.5.205c-.222 0-.397-.068-.524-.205a.68.68 0 01-.19-.479v-6.63c0-.608-.103-1.163-.309-1.664a2.565 2.565 0 00-1.023-1.208c-.46-.304-1.07-.456-1.831-.456-.683 0-1.333.152-1.952.456a4.186 4.186 0 00-1.474 1.208 2.685 2.685 0 00-.571 1.663v6.631a.645.645 0 01-.214.479.7.7 0 01-.5.205c-.222 0-.396-.068-.523-.205a.681.681 0 01-.191-.479V17.88c0-.182.064-.341.191-.478a.728.728 0 01.523-.205.65.65 0 01.5.205.646.646 0 01.214.478v1.915l-.547.82c.031-.486.19-.95.475-1.39a4.936 4.936 0 011.142-1.208c.46-.365.968-.646 1.522-.843a4.878 4.878 0 011.713-.32zm13.278 0c.761 0 1.459.083 2.093.25.634.152 1.142.365 1.523.639.396.273.595.57.595.888 0 .152-.064.304-.191.456a.526.526 0 01-.429.205.838.838 0 01-.499-.137 3.22 3.22 0 01-.333-.319 1.611 1.611 0 00-.5-.341c-.205-.091-.507-.175-.903-.251a6.602 6.602 0 00-1.285-.114c-.888 0-1.689.213-2.403.638a4.642 4.642 0 00-1.689 1.732c-.412.714-.618 1.52-.618 2.416 0 .911.19 1.732.571 2.46.397.73.944 1.307 1.642 1.733.713.41 1.53.615 2.45.615.634 0 1.126-.053 1.474-.16.366-.106.667-.227.904-.364.317-.167.54-.327.667-.479a.686.686 0 01.547-.25c.19 0 .341.06.452.182.11.106.166.25.166.433 0 .243-.19.516-.571.82-.365.289-.872.547-1.522.775-.651.213-1.404.319-2.26.319-1.174 0-2.213-.266-3.117-.798a5.72 5.72 0 01-2.093-2.165c-.492-.926-.738-1.967-.738-3.121 0-1.11.254-2.12.762-3.031a5.834 5.834 0 012.117-2.188c.904-.562 1.967-.843 3.188-.843zM235.123 29c-1.221 0-2.299-.25-3.235-.752a5.462 5.462 0 01-2.188-2.097c-.524-.896-.786-1.944-.786-3.144 0-1.292.262-2.393.786-3.305.538-.911 1.228-1.61 2.069-2.096a5.284 5.284 0 012.712-.752c.698 0 1.372.121 2.022.364a4.874 4.874 0 011.76 1.049 5.26 5.26 0 011.237 1.686c.317.669.484 1.443.5 2.325a.642.642 0 01-.214.478.749.749 0 01-.5.182h-9.539l-.286-1.23h9.373l-.309.273v-.456c-.079-.713-.325-1.321-.738-1.823a4.006 4.006 0 00-1.498-1.139 4.338 4.338 0 00-1.808-.387 4.35 4.35 0 00-1.475.273 3.92 3.92 0 00-1.356.866c-.397.38-.722.873-.975 1.481-.254.593-.381 1.3-.381 2.12 0 .896.19 1.709.571 2.438.381.73.928 1.306 1.641 1.732.714.425 1.578.638 2.593.638.54 0 1.031-.076 1.475-.228.444-.152.832-.35 1.166-.592.349-.259.634-.525.857-.798.174-.137.34-.205.498-.205.175 0 .318.06.429.182a.557.557 0 01.191.41c0 .183-.08.342-.239.479-.475.547-1.094 1.025-1.855 1.435a5.342 5.342 0 01-2.498.593z" fill="#fff"/><circle cx="155.5" cy="27.5" r="1.5" fill="#fff"/></svg>