<?xml version="1.0" standalone="no"?>
<!DOCTYPE svg PUBLIC "-//W3C//DTD SVG 20010904//EN"
 "http://www.w3.org/TR/2001/REC-SVG-20010904/DTD/svg10.dtd">
<svg version="1.0" xmlns="http://www.w3.org/2000/svg"
 width="848.000000pt" height="848.000000pt" viewBox="0 0 848.000000 848.000000"
 preserveAspectRatio="xMidYMid meet">
<metadata>
Created by potrace 1.11, written by Peter Selinger 2001-2013
</metadata>
<g transform="translate(0.000000,848.000000) scale(0.100000,-0.100000)"
fill="#000000" stroke="none">
<path d="M2605 8214 c-504 -162 -910 -444 -1209 -839 -25 -33 -50 -64 -54 -70
-27 -34 -107 -164 -152 -249 -56 -106 -132 -276 -123 -276 3 0 1 -6 -4 -12
-13 -17 -78 -219 -89 -278 -1 -8 -5 -28 -8 -45 -3 -16 -8 -41 -11 -55 -11 -55
-21 -127 -31 -225 -7 -77 -12 -266 -7 -277 2 -4 5 -47 7 -95 2 -48 9 -115 14
-148 6 -33 14 -78 17 -100 3 -22 7 -47 10 -55 2 -8 6 -26 9 -40 3 -14 13 -52
22 -85 9 -33 17 -67 19 -76 2 -8 10 -32 19 -52 8 -21 15 -40 15 -43 -1 -4 4
-19 27 -79 4 -11 8 -22 8 -25 1 -3 7 -15 14 -27 7 -13 11 -23 8 -23 -10 0 123
-255 189 -360 39 -63 75 -121 79 -128 11 -19 -25 0 -44 22 -7 9 -18 16 -25 16
-8 0 -15 4 -17 8 -2 6 -51 42 -113 84 -29 20 -120 103 -195 179 -104 106 -117
121 -160 184 -18 28 -36 52 -39 55 -3 3 -12 16 -19 29 -8 13 -23 40 -35 60
-68 120 -175 376 -162 389 2 3 1 10 -4 16 -8 10 -44 170 -50 227 -2 14 -34 19
-48 7 -14 -11 -153 -289 -153 -305 0 -4 -6 -20 -14 -34 -7 -14 -28 -68 -46
-120 -18 -52 -38 -106 -46 -120 -7 -15 -11 -28 -9 -31 3 -2 -4 -27 -15 -55
-11 -28 -21 -62 -24 -75 -3 -13 -11 -44 -19 -70 -8 -26 -12 -49 -9 -52 3 -4 0
-6 -7 -6 -7 0 -10 -3 -7 -8 2 -4 -2 -32 -10 -62 -8 -30 -17 -68 -20 -85 -3
-16 -9 -49 -15 -73 -5 -23 -12 -59 -15 -80 -3 -20 -7 -48 -10 -62 -2 -14 -6
-45 -9 -70 -3 -25 -8 -56 -10 -70 -20 -109 -28 -630 -12 -755 4 -33 9 -78 11
-100 6 -67 18 -139 42 -265 8 -41 16 -86 19 -100 4 -27 54 -216 62 -240 4 -8
7 -19 8 -25 1 -5 3 -13 5 -17 1 -5 3 -11 4 -15 3 -11 26 -85 33 -103 3 -8 7
-20 9 -27 3 -18 60 -166 106 -278 52 -125 198 -415 209 -415 5 0 9 -5 9 -11 0
-6 13 -30 30 -54 16 -24 30 -46 30 -49 0 -3 6 -14 14 -23 8 -10 51 -67 96
-128 45 -60 87 -115 94 -120 6 -6 36 -39 66 -75 59 -70 230 -243 377 -382 152
-142 433 -361 633 -492 299 -196 653 -367 925 -446 283 -83 347 -89 800 -80
66 1 188 2 270 2 83 0 168 1 190 3 97 9 147 16 215 30 14 3 39 8 55 11 17 2
48 10 69 15 22 6 49 12 60 14 12 1 28 5 36 8 8 3 47 17 85 30 102 36 229 90
233 99 2 4 9 8 16 8 18 0 79 31 88 44 4 6 8 8 8 3 0 -8 93 41 199 105 34 21
67 38 72 38 5 0 9 5 9 10 0 6 7 10 15 10 8 0 15 5 15 10 0 6 5 10 10 10 10 0
67 37 80 51 3 3 22 15 43 28 21 13 43 28 50 34 7 7 41 34 77 62 70 54 110 87
146 122 13 13 26 23 29 23 10 0 294 289 335 340 19 24 42 51 51 59 39 39 249
314 249 326 0 3 5 11 10 18 31 35 139 215 191 317 24 47 46 87 49 90 8 8 101
225 100 235 0 3 7 19 15 35 8 16 15 31 14 32 0 2 5 17 11 33 7 17 13 38 15 48
2 9 7 23 12 30 4 6 8 14 9 17 1 9 15 44 29 75 10 24 24 34 71 49 33 10 79 29
104 42 25 13 59 30 75 38 160 77 357 336 436 571 7 22 16 45 20 50 4 6 10 26
15 45 4 19 9 40 10 45 2 6 5 19 8 30 48 185 47 228 -7 248 -23 9 -81 -48 -134
-130 -10 -15 -22 -33 -28 -39 -5 -6 -17 -22 -25 -34 -48 -73 -201 -250 -215
-250 -3 0 -16 -9 -28 -21 -12 -11 -35 -28 -52 -36 -16 -9 -32 -19 -35 -23 -3
-4 -19 -10 -36 -13 l-32 -6 4 62 c2 34 6 78 9 97 11 87 20 180 31 320 4 61 4
414 0 470 -3 25 -7 87 -11 138 -3 51 -9 103 -11 115 -3 12 -7 42 -10 67 -3 25
-9 68 -14 95 -5 28 -12 62 -14 78 -3 15 -7 35 -10 45 -3 9 -7 33 -10 52 -3 19
-10 50 -15 68 -5 17 -7 32 -4 32 3 0 0 7 -7 15 -7 8 -10 15 -7 15 3 0 -1 21
-9 47 -8 25 -13 47 -12 49 9 8 111 74 115 74 3 0 25 14 50 30 24 17 48 30 54
30 5 0 9 5 9 10 0 6 5 10 11 10 6 0 17 6 24 13 30 26 44 37 49 37 3 0 25 15
49 33 24 17 56 41 71 52 63 46 122 91 136 106 8 8 25 22 38 31 50 34 165 140
302 280 183 185 200 204 200 219 0 7 3 10 6 6 7 -7 52 48 174 218 105 147 159
233 196 310 67 141 107 229 115 250 22 61 29 84 39 124 29 110 35 316 11 345
-7 9 -10 16 -6 16 4 0 2 7 -5 15 -7 8 -10 15 -6 15 3 0 -11 17 -32 38 -47 47
-107 66 -188 59 -167 -13 -259 -49 -744 -292 -396 -199 -430 -215 -440 -215
-6 0 -10 -4 -10 -10 0 -5 -5 -10 -12 -10 -6 0 -52 -20 -102 -44 -50 -24 -134
-63 -186 -86 -52 -23 -114 -50 -137 -61 -23 -10 -44 -19 -47 -19 -3 0 -29 -11
-58 -24 -82 -37 -156 -66 -167 -66 -5 0 -13 10 -17 23 -3 12 -14 40 -24 62
-22 50 -33 79 -34 85 -7 35 -129 296 -145 310 -3 3 -19 30 -34 60 -16 30 -39
71 -50 91 -12 20 -38 64 -57 98 -19 33 -38 61 -42 61 -5 0 -8 5 -8 11 0 6 -13
30 -30 54 -16 24 -30 46 -30 49 0 3 -8 14 -17 25 -10 10 -36 45 -58 76 -22 32
-45 63 -50 69 -6 6 -17 21 -26 32 -55 81 -227 257 -335 344 -29 23 -134 86
-174 103 -45 19 -102 41 -115 44 -5 1 -21 5 -35 8 -41 10 -122 12 -165 3 -61
-13 -64 -14 -71 -21 -4 -4 -14 -7 -21 -7 -21 0 -112 -63 -157 -107 -43 -43
-112 -137 -148 -203 -23 -41 -107 -240 -112 -265 -6 -28 -30 -91 -37 -100 -6
-6 -18 -1 -32 13 -31 31 -61 56 -142 117 -99 75 -156 106 -300 165 -21 9 -70
22 -95 25 -8 1 -29 5 -45 9 -69 15 -208 8 -337 -18 -82 -17 -237 -106 -294
-169 -55 -60 -94 -119 -94 -144 0 -27 -6 -25 86 -29 127 -5 227 -75 288 -200
25 -51 29 -71 30 -144 0 -70 -4 -94 -24 -134 -45 -93 -161 -181 -280 -213 -8
-2 -53 -6 -101 -8 -120 -6 -229 29 -308 99 -99 88 -135 132 -174 211 -63 124
-81 241 -62 390 12 98 12 100 14 100 1 0 4 11 6 25 2 14 11 54 20 90 9 36 17
72 19 80 7 29 67 205 77 225 5 11 20 49 32 85 31 86 58 137 101 189 31 37 34
45 22 57 -20 19 -38 17 -131 -12z"/>
</g>
</svg>
