<svg xmlns="http://www.w3.org/2000/svg" fill="none" viewBox="0 0 179 203">
  <defs/>
  <path fill="url(#paint0_linear)" d="M169.067 43.504a9.412 9.412 0 10-9.412-9.412 9.411 9.411 0 009.412 9.412z"/>
  <path fill="url(#paint1_linear)" d="M128.369 80.28a6.884 6.884 0 100-13.77 6.884 6.884 0 000 13.77z"/>
  <path fill="url(#paint2_linear)" d="M101.318 14.99a7.495 7.495 0 100-14.99 7.495 7.495 0 000 14.99z"/>
  <path fill="url(#paint3_linear)" d="M101.318 202.479a7.495 7.495 0 100-14.99 7.495 7.495 0 000 14.99z"/>
  <path fill="url(#paint4_linear)" d="M134.574 186.2a6.397 6.397 0 10-.001-12.793 6.397 6.397 0 00.001 12.793z"/>
  <path fill="url(#paint5_linear)" d="M22.902 74.546a5.891 5.891 0 100-11.782 5.891 5.891 0 000 11.782z"/>
  <path fill="url(#paint6_linear)" d="M22.902 140.691a5.89 5.89 0 10.001-11.781 5.89 5.89 0 000 11.781z"/>
  <path fill="url(#paint7_linear)" d="M7.791 109.283a7.79 7.79 0 100-15.582 7.79 7.79 0 000 15.582z"/>
  <path fill="url(#paint8_linear)" d="M33.256 113.745c6.767 0 12.252-5.486 12.252-12.253s-5.485-12.253-12.252-12.253c-6.768 0-12.253 5.486-12.253 12.253s5.485 12.253 12.253 12.253z"/>
  <path fill="url(#paint9_linear)" d="M68.394 186.2a6.397 6.397 0 100-12.794 6.397 6.397 0 000 12.794z"/>
  <path fill="url(#paint10_linear)" d="M134.574 28.515a6.397 6.397 0 10-.001-12.793 6.397 6.397 0 00.001 12.793z"/>
  <path fill="url(#paint11_linear)" d="M68.394 28.515a6.397 6.397 0 100-12.794 6.397 6.397 0 000 12.794z"/>
  <path fill="url(#paint12_linear)" d="M128.369 135.079a6.884 6.884 0 006.884-6.885 6.884 6.884 0 00-6.884-6.884 6.884 6.884 0 100 13.769z"/>
  <path fill="url(#paint13_linear)" d="M101.318 145.136a6.886 6.886 0 10-.001-13.771 6.886 6.886 0 00.001 13.771z"/>
  <path fill="url(#paint14_linear)" d="M101.318 69.91a6.885 6.885 0 100-13.77 6.885 6.885 0 000 13.77z"/>
  <path fill="url(#paint15_linear)" d="M74.494 80.28a6.885 6.885 0 100-13.769 6.885 6.885 0 000 13.77z"/>
  <path fill="url(#paint16_linear)" d="M62.38 108.377a6.884 6.884 0 100-13.769 6.884 6.884 0 000 13.769z"/>
  <path fill="url(#paint17_linear)" d="M74.494 135.079a6.884 6.884 0 100-13.769 6.884 6.884 0 000 13.769z"/>
  <path fill="url(#paint18_linear)" d="M121.885 160.509c5.978 0 10.824-4.846 10.824-10.824s-4.846-10.824-10.824-10.824-10.824 4.846-10.824 10.824 4.846 10.824 10.824 10.824z"/>
  <path fill="url(#paint19_linear)" d="M101.318 180.483c7.094 0 12.846-5.751 12.846-12.846 0-7.094-5.752-12.845-12.846-12.845s-12.846 5.751-12.846 12.845c0 7.095 5.752 12.846 12.846 12.846z"/>
  <path fill="url(#paint20_linear)" d="M101.318 46.938c7.094 0 12.846-5.752 12.846-12.846s-5.752-12.845-12.846-12.845-12.846 5.75-12.846 12.845c0 7.095 5.752 12.846 12.846 12.846z"/>
  <path fill="url(#paint21_linear)" d="M149.458 160.509c5.978 0 10.824-4.846 10.824-10.824s-4.846-10.824-10.824-10.824c-5.977 0-10.823 4.846-10.823 10.824s4.846 10.824 10.823 10.824z"/>
  <path fill="url(#paint22_linear)" d="M121.885 62.433c5.978 0 10.824-4.846 10.824-10.824s-4.846-10.824-10.824-10.824-10.824 4.846-10.824 10.824 4.846 10.824 10.824 10.824z"/>
  <path fill="url(#paint23_linear)" d="M149.458 62.433c5.978 0 10.824-4.846 10.824-10.824s-4.846-10.824-10.824-10.824c-5.977 0-10.823 4.846-10.823 10.824s4.846 10.824 10.823 10.824z"/>
  <path fill="url(#paint24_linear)" d="M80.681 62.433c5.978 0 10.824-4.846 10.824-10.824S86.66 40.785 80.681 40.785c-5.977 0-10.823 4.846-10.823 10.824s4.846 10.824 10.823 10.824z"/>
  <path fill="url(#paint25_linear)" d="M52.306 91.296c5.574 0 10.092-4.518 10.092-10.092 0-5.573-4.518-10.091-10.092-10.091-5.573 0-10.092 4.518-10.092 10.091 0 5.574 4.519 10.092 10.092 10.092z"/>
  <path fill="url(#paint26_linear)" d="M52.306 132.133c5.574 0 10.092-4.518 10.092-10.091 0-5.574-4.518-10.092-10.092-10.092-5.573 0-10.092 4.518-10.092 10.092 0 5.573 4.519 10.091 10.092 10.091z"/>
  <path fill="url(#paint27_linear)" d="M53.178 63.583c6.613 0 11.974-5.361 11.974-11.974S59.79 39.635 53.178 39.635c-6.614 0-11.974 5.36-11.974 11.974 0 6.613 5.36 11.974 11.974 11.974z"/>
  <path fill="url(#paint28_linear)" d="M80.681 160.509c5.978 0 10.824-4.846 10.824-10.824s-4.846-10.824-10.824-10.824c-5.977 0-10.823 4.846-10.823 10.824s4.846 10.824 10.823 10.824z"/>
  <path fill="url(#paint29_linear)" d="M53.178 161.659c6.613 0 11.974-5.361 11.974-11.974s-5.361-11.974-11.974-11.974c-6.614 0-11.974 5.361-11.974 11.974s5.36 11.974 11.974 11.974z"/>
  <path fill="url(#paint30_linear)" d="M169.067 177.049a9.411 9.411 0 009.412-9.412 9.412 9.412 0 00-9.412-9.412 9.411 9.411 0 00-9.412 9.412 9.41 9.41 0 009.412 9.412z"/>
  <path fill="url(#paint31_linear)" d="M36.114 177.049a9.411 9.411 0 009.412-9.412 9.412 9.412 0 10-9.412 9.412z"/>
  <path fill="url(#paint32_linear)" d="M36.114 43.504a9.412 9.412 0 100-18.824 9.412 9.412 0 000 18.824z"/>
  <defs>
    <linearGradient id="paint0_linear" x1=".558" x2="178.339" y1="101.963" y2="101.963" gradientUnits="userSpaceOnUse">
      <stop stop-color="#A56FA3"/>
      <stop offset=".882" stop-color="#DF8D94"/>
    </linearGradient>
    <linearGradient id="paint1_linear" x1=".558" x2="178.339" y1="101.963" y2="101.963" gradientUnits="userSpaceOnUse">
      <stop stop-color="#A56FA3"/>
      <stop offset=".882" stop-color="#DF8D94"/>
    </linearGradient>
    <linearGradient id="paint2_linear" x1=".558" x2="178.339" y1="101.963" y2="101.963" gradientUnits="userSpaceOnUse">
      <stop stop-color="#A56FA3"/>
      <stop offset=".882" stop-color="#DF8D94"/>
    </linearGradient>
    <linearGradient id="paint3_linear" x1=".558" x2="178.339" y1="101.963" y2="101.963" gradientUnits="userSpaceOnUse">
      <stop stop-color="#A56FA3"/>
      <stop offset=".882" stop-color="#DF8D94"/>
    </linearGradient>
    <linearGradient id="paint4_linear" x1=".558" x2="178.339" y1="101.963" y2="101.963" gradientUnits="userSpaceOnUse">
      <stop stop-color="#A56FA3"/>
      <stop offset=".882" stop-color="#DF8D94"/>
    </linearGradient>
    <linearGradient id="paint5_linear" x1=".558" x2="178.339" y1="101.963" y2="101.963" gradientUnits="userSpaceOnUse">
      <stop stop-color="#A56FA3"/>
      <stop offset=".882" stop-color="#DF8D94"/>
    </linearGradient>
    <linearGradient id="paint6_linear" x1=".558" x2="178.339" y1="101.963" y2="101.963" gradientUnits="userSpaceOnUse">
      <stop stop-color="#A56FA3"/>
      <stop offset=".882" stop-color="#DF8D94"/>
    </linearGradient>
    <linearGradient id="paint7_linear" x1=".558" x2="178.339" y1="101.963" y2="101.963" gradientUnits="userSpaceOnUse">
      <stop stop-color="#A56FA3"/>
      <stop offset=".882" stop-color="#DF8D94"/>
    </linearGradient>
    <linearGradient id="paint8_linear" x1=".558" x2="178.339" y1="101.963" y2="101.963" gradientUnits="userSpaceOnUse">
      <stop stop-color="#A56FA3"/>
      <stop offset=".882" stop-color="#DF8D94"/>
    </linearGradient>
    <linearGradient id="paint9_linear" x1=".558" x2="178.339" y1="101.963" y2="101.963" gradientUnits="userSpaceOnUse">
      <stop stop-color="#A56FA3"/>
      <stop offset=".882" stop-color="#DF8D94"/>
    </linearGradient>
    <linearGradient id="paint10_linear" x1=".558" x2="178.339" y1="101.963" y2="101.963" gradientUnits="userSpaceOnUse">
      <stop stop-color="#A56FA3"/>
      <stop offset=".882" stop-color="#DF8D94"/>
    </linearGradient>
    <linearGradient id="paint11_linear" x1=".558" x2="178.339" y1="101.963" y2="101.963" gradientUnits="userSpaceOnUse">
      <stop stop-color="#A56FA3"/>
      <stop offset=".882" stop-color="#DF8D94"/>
    </linearGradient>
    <linearGradient id="paint12_linear" x1=".558" x2="178.339" y1="101.963" y2="101.963" gradientUnits="userSpaceOnUse">
      <stop stop-color="#A56FA3"/>
      <stop offset=".882" stop-color="#DF8D94"/>
    </linearGradient>
    <linearGradient id="paint13_linear" x1=".558" x2="178.339" y1="101.963" y2="101.963" gradientUnits="userSpaceOnUse">
      <stop stop-color="#A56FA3"/>
      <stop offset=".882" stop-color="#DF8D94"/>
    </linearGradient>
    <linearGradient id="paint14_linear" x1=".558" x2="178.339" y1="101.963" y2="101.963" gradientUnits="userSpaceOnUse">
      <stop stop-color="#A56FA3"/>
      <stop offset=".882" stop-color="#DF8D94"/>
    </linearGradient>
    <linearGradient id="paint15_linear" x1=".558" x2="178.339" y1="101.963" y2="101.963" gradientUnits="userSpaceOnUse">
      <stop stop-color="#A56FA3"/>
      <stop offset=".882" stop-color="#DF8D94"/>
    </linearGradient>
    <linearGradient id="paint16_linear" x1=".558" x2="178.339" y1="101.963" y2="101.963" gradientUnits="userSpaceOnUse">
      <stop stop-color="#A56FA3"/>
      <stop offset=".882" stop-color="#DF8D94"/>
    </linearGradient>
    <linearGradient id="paint17_linear" x1=".558" x2="178.339" y1="101.963" y2="101.963" gradientUnits="userSpaceOnUse">
      <stop stop-color="#A56FA3"/>
      <stop offset=".882" stop-color="#DF8D94"/>
    </linearGradient>
    <linearGradient id="paint18_linear" x1=".558" x2="178.339" y1="101.963" y2="101.963" gradientUnits="userSpaceOnUse">
      <stop stop-color="#A56FA3"/>
      <stop offset=".882" stop-color="#DF8D94"/>
    </linearGradient>
    <linearGradient id="paint19_linear" x1=".558" x2="178.339" y1="101.963" y2="101.963" gradientUnits="userSpaceOnUse">
      <stop stop-color="#A56FA3"/>
      <stop offset=".882" stop-color="#DF8D94"/>
    </linearGradient>
    <linearGradient id="paint20_linear" x1=".558" x2="178.339" y1="101.963" y2="101.963" gradientUnits="userSpaceOnUse">
      <stop stop-color="#A56FA3"/>
      <stop offset=".882" stop-color="#DF8D94"/>
    </linearGradient>
    <linearGradient id="paint21_linear" x1=".558" x2="178.339" y1="101.963" y2="101.963" gradientUnits="userSpaceOnUse">
      <stop stop-color="#A56FA3"/>
      <stop offset=".882" stop-color="#DF8D94"/>
    </linearGradient>
    <linearGradient id="paint22_linear" x1=".558" x2="178.339" y1="101.963" y2="101.963" gradientUnits="userSpaceOnUse">
      <stop stop-color="#A56FA3"/>
      <stop offset=".882" stop-color="#DF8D94"/>
    </linearGradient>
    <linearGradient id="paint23_linear" x1=".558" x2="178.339" y1="101.963" y2="101.963" gradientUnits="userSpaceOnUse">
      <stop stop-color="#A56FA3"/>
      <stop offset=".882" stop-color="#DF8D94"/>
    </linearGradient>
    <linearGradient id="paint24_linear" x1=".558" x2="178.339" y1="101.963" y2="101.963" gradientUnits="userSpaceOnUse">
      <stop stop-color="#A56FA3"/>
      <stop offset=".882" stop-color="#DF8D94"/>
    </linearGradient>
    <linearGradient id="paint25_linear" x1=".558" x2="178.339" y1="101.963" y2="101.963" gradientUnits="userSpaceOnUse">
      <stop stop-color="#A56FA3"/>
      <stop offset=".882" stop-color="#DF8D94"/>
    </linearGradient>
    <linearGradient id="paint26_linear" x1=".558" x2="178.339" y1="101.963" y2="101.963" gradientUnits="userSpaceOnUse">
      <stop stop-color="#A56FA3"/>
      <stop offset=".882" stop-color="#DF8D94"/>
    </linearGradient>
    <linearGradient id="paint27_linear" x1=".558" x2="178.339" y1="101.963" y2="101.963" gradientUnits="userSpaceOnUse">
      <stop stop-color="#A56FA3"/>
      <stop offset=".882" stop-color="#DF8D94"/>
    </linearGradient>
    <linearGradient id="paint28_linear" x1=".558" x2="178.339" y1="101.963" y2="101.963" gradientUnits="userSpaceOnUse">
      <stop stop-color="#A56FA3"/>
      <stop offset=".882" stop-color="#DF8D94"/>
    </linearGradient>
    <linearGradient id="paint29_linear" x1=".558" x2="178.339" y1="101.963" y2="101.963" gradientUnits="userSpaceOnUse">
      <stop stop-color="#A56FA3"/>
      <stop offset=".882" stop-color="#DF8D94"/>
    </linearGradient>
    <linearGradient id="paint30_linear" x1=".558" x2="178.339" y1="101.963" y2="101.963" gradientUnits="userSpaceOnUse">
      <stop stop-color="#A56FA3"/>
      <stop offset=".882" stop-color="#DF8D94"/>
    </linearGradient>
    <linearGradient id="paint31_linear" x1=".558" x2="178.339" y1="101.963" y2="101.963" gradientUnits="userSpaceOnUse">
      <stop stop-color="#A56FA3"/>
      <stop offset=".882" stop-color="#DF8D94"/>
    </linearGradient>
    <linearGradient id="paint32_linear" x1=".558" x2="178.339" y1="101.963" y2="101.963" gradientUnits="userSpaceOnUse">
      <stop stop-color="#A56FA3"/>
      <stop offset=".882" stop-color="#DF8D94"/>
    </linearGradient>
  </defs>
</svg>
