<svg xmlns="http://www.w3.org/2000/svg" fill="none" viewBox="0 0 87 87">
  <path fill="#F5AC37" d="M43.09 0c23.8 0 43.09 19.294 43.09 43.09 0 23.8-19.29 43.09-43.09 43.09C19.294 86.18 0 66.89 0 43.09 0 19.294 19.294 0 43.09 0z"/>
  <path fill="#FEFEFD" d="M44.685 46.133H61.06c.349 0 .514 0 .539-.458a31.3 31.3 0 000-5.008c0-.324-.161-.458-.512-.458H28.5c-.404 0-.512.134-.512.512v4.794c0 .618 0 .618.646.618h16.051zM59.77 34.607a.524.524 0 000-.376 10.65 10.65 0 00-.973-1.697 13.739 13.739 0 00-1.993-2.505 6.608 6.608 0 00-1.24-1.212 19.358 19.358 0 00-8.08-4.093 20.085 20.085 0 00-4.578-.485H28.443c-.403 0-.457.16-.457.512v9.56c0 .403 0 .511.512.511h31.077s.27-.054.324-.215h-.132.002zm0 17.128c-.457-.05-.919-.05-1.376 0H28.527c-.404 0-.54 0-.54.54v9.346c0 .43 0 .539.54.539h13.789c.659.05 1.318.004 1.964-.134a20.528 20.528 0 005.846-1.294 10.704 10.704 0 001.965-.915h.188a17.496 17.496 0 007.514-7.564s.188-.407-.024-.514v-.004zm-37.193 15.27V52.113c0-.35 0-.403-.43-.403H16.3c-.324 0-.458 0-.458-.43v-5.118h6.248c.349 0 .485 0 .485-.457v-5.063c0-.324 0-.404-.43-.404H16.3c-.324 0-.458 0-.458-.43v-4.74c0-.296 0-.375.43-.375h5.79c.404 0 .513 0 .513-.512V19.665c0-.43 0-.54.539-.54h20.197c1.466.059 2.922.22 4.363.485a26.327 26.327 0 018.43 3.124 23.758 23.758 0 014.739 3.663 25.952 25.952 0 012.881 3.582 21.607 21.607 0 012.104 4.12c.068.376.428.63.805.566h4.82c.619 0 .619 0 .646.594v4.417c0 .43-.161.539-.593.539h-3.718c-.376 0-.484 0-.457.485.147 1.64.147 3.286 0 4.927 0 .458 0 .512.514.512h4.252c.188.242 0 .485 0 .729a5.43 5.43 0 010 .94v3.26c0 .458-.134.593-.539.593h-5.09a.674.674 0 00-.782.512 21.536 21.536 0 01-5.656 8.241c-.915.825-1.877 1.6-2.881 2.316-1.078.62-2.128 1.266-3.233 1.778a29.12 29.12 0 01-6.356 2.018 33.13 33.13 0 01-6.302.512H22.568v-.027l.008-.006z"/>
</svg>
