<svg width="45" height="36" viewBox="0 0 45 36" fill="none" xmlns="http://www.w3.org/2000/svg">
<path d="M5.88039 15.7151C6.19933 15.9044 7.19297 16.5352 7.20524 16.5141C7.20524 16.5141 6.88629 16.0831 6.82496 16.0095C6.138 15.1159 5.62278 14.1487 5.26703 13.1184C3.64777 8.4611 5.95399 3.55149 10.9222 1.08092C11.83 0.628853 12.7868 0.292434 13.7927 0.0506332C13.9154 0.019094 14.038 -0.0334714 14.1852 0.0296071C14.2466 0.0926856 14.2711 0.17679 14.1852 0.239869C13.805 0.502696 13.6823 0.89168 13.5228 1.25964C13.1425 2.07966 12.8236 2.93122 12.6886 3.8038C12.5046 4.96024 12.9585 5.93796 14.0626 6.63182C15.0071 7.22056 16.4179 7.08389 17.203 6.35848C17.6814 5.91693 17.7795 5.29666 17.4606 4.72896C17.1171 4.12971 16.5037 3.8038 15.8045 3.85637C15.7186 3.86688 15.6205 3.88791 15.5346 3.82483C15.4488 3.70919 15.5469 3.61457 15.6082 3.51995C16.2093 2.71044 17.1171 2.34249 18.1843 2.23735C19.6073 2.10068 20.7972 2.58429 21.8645 3.33072C22.0607 3.46739 22.2448 3.61457 22.4656 3.78278C22.5392 3.59354 22.6005 3.42533 22.6741 3.25712C22.9562 2.54223 23.2997 1.84837 23.9008 1.28066C24.6859 0.555261 25.6305 0.366026 26.71 0.744497C27.7159 1.09143 28.4765 1.7117 29.1634 2.39505C30.3165 3.51995 31.1752 4.81306 31.9849 6.1272C32.3038 6.65285 32.4755 7.22056 32.7945 7.77775C33.2729 7.60954 33.7391 7.44133 34.2052 7.27312C36.2048 6.53721 38.1184 5.65411 40.0689 4.83409C40.7191 4.56075 41.3815 4.29792 42.0807 4.14022C43.4056 3.82483 44.1048 4.30843 43.9944 5.4859C43.9331 6.16925 43.6877 6.82106 43.3197 7.43082C43.1602 7.34671 43.1848 7.23107 43.2461 7.10491C43.3442 6.89465 43.4178 6.67388 43.5282 6.46361C43.7368 6.03258 43.7368 5.58052 43.7736 5.12845C43.749 5.09691 43.7 5.13897 43.7368 5.11794C43.749 5.10743 43.7613 5.11794 43.7613 5.12845C43.7858 5.2441 43.7736 5.37025 43.7736 5.4859C43.7736 5.53846 43.7613 5.59103 43.6754 5.57C43.565 5.45436 43.6018 5.31769 43.6018 5.19153C43.5773 4.56075 43.2093 4.30843 42.4855 4.42408C41.8231 4.52921 41.1975 4.7605 40.5964 5.02332C39.4187 5.51744 38.2411 6.03258 37.0635 6.53721C35.8735 7.04183 34.6714 7.51492 33.4447 7.93545C33.3342 7.9775 33.2116 7.99853 33.0889 8.12468C33.2361 8.63982 33.4201 9.17599 33.6532 9.69113C33.8372 9.72267 33.9231 9.62805 34.0212 9.57549C34.6346 9.23907 35.1743 8.82906 35.7263 8.42956C35.7877 8.38751 35.849 8.33494 35.9226 8.3034C36.0207 8.25084 36.1189 8.26135 36.2048 8.33494C36.2906 8.40854 36.2906 8.49264 36.2416 8.57675C36.1925 8.66085 36.1189 8.71342 36.0453 8.77649C34.5119 10.0065 32.7332 10.8896 30.7704 11.5204C29.605 11.8989 28.3906 12.1407 27.1516 12.2563C24.919 12.4561 22.7354 12.2879 20.601 11.6886C20.4292 11.6466 20.2697 11.5835 20.2329 11.4048C20.3188 11.205 20.5028 11.226 20.6868 11.2576C21.0794 11.3312 21.4474 11.4573 21.8399 11.5204C21.9626 11.5414 22.073 11.5835 22.2448 11.5414C22.1466 11.1419 22.0975 10.7319 21.9871 10.3219C21.7173 10.2483 21.4597 10.2694 21.2143 10.2904C20.9322 10.3219 20.65 10.3324 20.3556 10.3324C19.4478 10.3219 18.5401 10.427 17.6323 10.385C16.2093 10.3114 14.7741 10.3324 13.3511 10.3429C12.7868 10.3429 12.2225 10.385 11.695 10.5322C11.3638 10.6268 11.0571 10.7424 10.9958 11.0894C10.9835 11.1419 10.9713 11.1945 10.9344 11.2471C10.7382 11.2996 10.8608 11.1314 10.8118 11.1104C10.7872 11.2576 10.8363 11.4363 10.6155 11.5204C10.3824 11.2366 10.4192 10.8581 10.7136 10.5532C10.9467 10.3219 11.2289 10.1537 11.5723 10.0801C12.0385 9.97499 12.5169 9.91191 12.9953 9.91191C13.6455 9.91191 14.2956 9.88037 14.9458 9.90139C16.6877 9.93293 18.4297 9.91191 20.1839 9.91191C20.6378 9.91191 21.1039 9.84883 21.5578 9.84883C21.6805 9.84883 21.8031 9.8278 21.9258 9.73318C21.8767 9.37574 21.9381 8.98676 21.8767 8.60828C21.7663 7.89339 21.889 7.1785 21.9258 6.46361C21.9626 5.75924 22.0853 5.07589 22.257 4.38202C22.2938 4.23484 22.2693 4.10868 22.1343 3.99304C21.5455 3.50944 20.8954 3.0784 20.1225 2.81557C18.9326 2.40556 17.7918 2.48967 16.7 3.06789C16.4915 3.15199 16.3443 3.27815 16.2093 3.43585C16.3075 3.55149 16.4669 3.49893 16.5773 3.54098C17.6078 3.86688 18.2334 4.74998 18.0862 5.67513C18.0126 6.10617 17.755 6.48464 17.3502 6.76849C15.8658 7.78826 13.7927 7.40979 12.8359 5.95899C12.2716 5.09691 12.1244 4.2033 12.4065 3.24661C12.6641 2.37402 12.9463 1.50144 13.3756 0.681418C13.3879 0.649879 13.4124 0.61834 13.3633 0.565774C13.2161 0.565774 13.0812 0.628853 12.9463 0.670905C10.1494 1.59606 8.05167 3.16251 6.60415 5.35974C5.81905 6.54772 5.36517 7.83032 5.2425 9.19702C4.98489 11.8989 5.83132 14.3379 7.75726 16.4931C7.87993 16.6298 8.07621 16.777 7.90447 16.9557C7.73273 17.1344 7.52418 17.0082 7.35244 16.9346C6.80042 16.7139 6.29747 16.4405 5.81905 16.1251C5.70865 16.0621 5.59824 15.9885 5.56144 15.8728C5.57371 15.6731 5.75772 15.7572 5.88039 15.7151Z" fill="#1D1812"/>
<path d="M10.5543 11.4782C10.5298 11.2995 10.7383 11.2048 10.6893 11.0156C10.8242 11.0787 10.7629 11.0682 10.8487 11.1313C10.8978 11.1523 10.9223 11.2995 10.9346 11.3415C11.413 12.3928 12.3699 13.0762 13.388 13.6859C15.8783 15.1893 18.6997 15.9568 21.6929 16.3247C22.662 16.4404 23.6434 16.5034 24.6125 16.5034C25.7656 16.5034 26.9064 16.4088 28.0473 16.2406C30.2922 15.9042 32.4512 15.3365 34.463 14.4113C36.1558 13.6334 37.7383 12.7082 39.149 11.5728C40.0691 10.8369 40.8664 10.0274 41.627 9.18633C41.7742 9.02864 41.9214 8.87094 42.0073 8.6817C42.179 8.37682 42.4612 8.12451 42.6329 7.81963C42.9396 7.29398 43.2095 6.7473 43.418 6.17959C43.4548 6.09548 43.4425 6.01138 43.4548 5.91676C43.5039 5.7906 43.4671 5.63291 43.6511 5.55932C43.786 5.40162 43.6633 5.2229 43.7737 5.05469C43.7737 5.20187 43.7983 5.34905 43.7615 5.48572C43.7124 5.68547 43.7737 5.87471 43.7247 6.07446C43.6265 6.42139 43.4425 6.7473 43.3076 7.08371C43.2585 7.19936 43.2463 7.29398 43.2953 7.40962C43.1481 7.48321 43.0745 7.61988 43.0132 7.73553C42.8169 8.13502 42.5593 8.50298 42.2526 8.84991C42.179 8.9235 42.2526 8.95504 42.2526 8.98658C41.6515 9.83814 40.891 10.5741 40.0813 11.2784C38.7565 12.4349 37.2722 13.4126 35.6529 14.2431C35.5548 14.2957 35.4566 14.3377 35.3462 14.4008C35.518 14.958 35.6652 15.5152 35.7878 16.0829C36.1559 17.9648 36.1681 19.8466 35.8614 21.7284C35.8614 21.76 35.8369 21.7915 35.8246 21.8231C35.751 21.9492 35.7388 22.0859 35.6897 22.2121C35.6406 22.3592 35.5548 22.4644 35.3953 22.2856C35.3585 22.0964 35.4198 21.9072 35.4566 21.7179C35.6774 20.551 35.751 19.3735 35.6529 18.2066C35.567 17.1342 35.4321 16.0514 35.0763 15.0106C35.0518 14.9265 35.0518 14.8319 34.9537 14.7583C34.7819 14.7267 34.6347 14.8003 34.4875 14.8739C33.3344 15.4101 32.1077 15.7991 30.8442 16.125C30.7828 16.1355 30.7215 16.1565 30.6724 16.1775C29.7892 16.3773 28.906 16.5875 27.9859 16.6611C27.6179 16.6191 27.2622 16.5875 26.9064 16.6927C26.7347 16.7452 26.5261 16.7558 26.3299 16.7137C26.2072 16.6927 26.06 16.6822 25.9373 16.7137C25.4589 16.8609 24.9682 16.8293 24.4775 16.7873C23.9868 16.7558 23.4962 16.7768 23.0177 16.7558C22.7969 16.7452 22.6007 16.7137 22.3921 16.6717C21.9996 16.5981 21.5948 16.5981 21.1899 16.6401C20.5398 16.6611 19.9264 16.4824 19.3008 16.3563C17.7061 16.0304 16.1849 15.5362 14.7374 14.8844C13.5475 14.3483 12.4435 13.7175 11.5234 12.8764C11.1677 12.561 10.861 12.2141 10.6402 11.8146C10.5789 11.741 10.4562 11.5938 10.5543 11.4782Z" fill="#1D1812"/>
<path d="M5.81896 30.5805C4.2365 29.2979 2.88711 27.8576 1.96707 26.1439C-0.559957 21.4656 -0.645827 16.7452 1.67266 11.9828C1.85667 11.6043 2.08975 11.2469 2.29829 10.8789C2.34736 10.7948 2.39642 10.6897 2.53136 10.7107C2.67857 10.7318 2.67857 10.8369 2.69084 10.9315C2.88711 12.2141 3.51273 13.36 4.3837 14.4008C4.46957 14.506 4.60451 14.5795 4.66585 14.7057C4.59224 14.8319 4.72718 14.958 4.65358 15.0842C4.62904 15.0947 4.59224 15.0947 4.56771 15.0842C4.35917 14.979 4.2365 14.8003 4.08929 14.6426C3.31646 13.7806 2.75217 12.8239 2.44549 11.762C2.42096 11.699 2.42096 11.6254 2.34736 11.5623C1.8812 12.3613 1.51319 13.1813 1.21878 14.0224C0.813963 15.1893 0.531819 16.3878 0.458216 17.6073C0.335544 19.6258 0.531819 21.6233 1.23105 23.5682C1.75853 25.0401 2.48229 26.4278 3.4882 27.7104C4.05249 28.4358 4.73945 29.0981 5.38961 29.7604C5.50001 29.9181 5.67175 30.0338 5.80669 30.1599C5.89256 30.2335 5.9907 30.3071 5.9539 30.4228C5.94163 30.5174 5.89256 30.5594 5.81896 30.5805Z" fill="#191611"/>
<path d="M35.4687 22.3281C35.6159 22.4017 35.6527 22.3071 35.6527 22.223C35.6527 22.0653 35.7263 21.9601 35.849 21.855C35.8367 21.9917 35.8244 22.1284 35.8122 22.2966C36.1802 22.223 36.4623 22.0548 36.7322 21.8655C37.2842 21.466 37.6891 20.9614 38.1061 20.4673C38.2533 20.2781 38.4128 20.0993 38.5846 19.9206C38.6582 19.847 38.7563 19.7839 38.879 19.826C39.0139 19.8575 39.0507 19.9627 39.0752 20.0678C39.0875 20.1309 39.0875 20.194 39.0752 20.2465C38.7931 21.5291 38.2656 22.7171 37.1984 23.6843C36.9653 23.8946 36.7077 24.0733 36.401 24.2099C36.1925 24.1679 36.2415 24.0417 36.2906 23.9156C36.5237 23.6738 36.8672 23.5371 37.0757 23.2743C37.3946 22.9484 37.6522 22.6014 37.8853 22.2335C38.0816 21.9076 38.2411 21.5712 38.3392 21.2137C38.376 21.035 38.4128 20.8563 38.5232 20.6986C38.5846 20.6145 38.5968 20.5199 38.6459 20.4252C38.56 20.4883 38.511 20.5619 38.4741 20.6355C38.0571 21.1717 37.6032 21.6868 37.0389 22.1284C36.1434 22.8222 35.0025 22.8958 33.9598 22.3491C33.2974 22.0022 32.7331 21.5396 32.1688 21.0876C31.7272 20.7406 31.2488 20.4252 30.6232 20.3411C30.0712 20.257 29.237 20.5829 28.9548 20.9929C28.7831 21.2453 28.7218 21.5081 28.8935 21.7919C28.9794 21.9391 29.0652 22.0863 29.1634 22.2335C29.2738 22.4227 29.5559 22.5068 29.5559 22.7591C29.421 22.9379 29.3106 22.8643 29.1757 22.7486C28.918 22.5173 28.7095 22.2545 28.55 21.9601C28.501 21.876 28.4396 21.813 28.3783 21.7499C28.1697 21.3189 28.317 20.9404 28.6482 20.6145C29.1879 20.0678 29.8871 19.8155 30.7213 19.8996C31.4819 20.0257 32.0584 20.4252 32.6227 20.8458C33.1625 21.2453 33.6409 21.7078 34.2788 22.0022C34.3279 22.0337 34.3769 22.0548 34.426 22.0758C34.7327 22.2545 35.1007 22.2755 35.4687 22.3281Z" fill="#211C17"/>
<path d="M34.8558 25.2082C34.1688 27.0586 33.028 28.7091 31.605 30.202C29.5686 32.3361 27.0907 33.9867 24.0852 35.0064C23.9257 35.059 21.46 35.9421 18.3197 35.5006C18.1234 35.3744 23.5455 34.9434 23.6681 34.9013C23.938 34.7962 24.2202 34.7016 24.5023 34.6385C24.7231 34.5859 24.8826 34.4387 25.1034 34.4072C25.1157 34.4072 25.0666 34.3757 25.0543 34.3546C25.0666 34.218 25.2015 34.1969 25.2997 34.1549C26.7226 33.5556 27.9984 32.7461 29.1883 31.8525C30.5868 30.8117 31.7276 29.5922 32.7213 28.257C33.0034 27.8786 33.2365 27.4686 33.5309 27.0901C33.5554 27.0691 33.58 27.0586 33.6045 27.0375C33.9848 26.6275 34.1688 26.1439 34.3651 25.6498C34.451 25.4185 34.5368 25.1872 34.7944 25.04C34.868 25.0821 34.9048 25.1241 34.8558 25.2082Z" fill="#191611"/>
<path d="M5.81934 30.581C5.8316 30.5179 5.85614 30.4653 5.94201 30.4653C6.07695 30.4233 6.02788 30.4338 6.15055 30.4338C6.70257 30.8123 7.38953 31.3064 7.88021 31.7479C8.01515 31.9266 8.19916 32.0423 8.43224 32.0949C9.07013 32.4208 9.64668 32.8203 10.2846 33.1567C11.3518 33.7244 12.4559 34.2185 13.6212 34.618C13.9892 34.7442 14.3573 34.8703 14.7498 34.9229C15.584 35.1437 16.4304 35.2803 17.3014 35.2698C17.424 35.2698 17.5467 35.2803 17.6571 35.2383C18.0987 35.1542 18.1355 35.1647 18.2337 35.4801C18.2827 35.396 18.3563 35.3434 18.479 35.3644C19.2519 35.5011 20.4786 35.5221 21.2637 35.5326C21.3127 35.5432 19.9388 35.6378 19.4359 35.5957C19.031 35.5642 18.6508 35.5747 18.2459 35.6167C16.5408 35.7744 14.9216 35.4485 13.3514 34.9124C10.8243 34.0503 8.61624 32.7467 6.5799 31.2118C6.33456 31.0015 6.07695 30.7912 5.81934 30.581Z" fill="#191611"/>
<path d="M20.8338 35.5957C20.0119 35.6483 19.2023 35.5537 18.4049 35.4275C18.3068 35.417 18.3436 35.5432 18.2332 35.5537C18.1841 35.4591 18.1228 35.3539 18.0737 35.2488C17.9388 35.2698 17.8284 35.2908 17.7057 35.3119C17.5708 35.3644 17.4481 35.3119 17.3254 35.2698C16.0619 34.8072 15.0069 34.1344 14.2218 33.1462C14.0378 32.9149 13.8538 32.6626 13.7925 32.3787C13.9274 32.179 13.9888 32.179 14.2218 32.3998C14.5408 32.7572 14.8107 33.1567 15.1787 33.4826C16.2582 34.4498 17.5585 35.0385 19.1041 35.2488C19.2514 35.2698 19.4108 35.2908 19.558 35.3119C20.061 35.3434 20.5517 35.3539 21.0546 35.3014C22.3304 35.1752 23.5448 34.8703 24.7225 34.4183C24.8329 34.3762 24.9433 34.3131 25.066 34.3552C25.1518 34.3552 25.2377 34.4077 25.3358 34.3867C24.882 34.576 24.4281 34.7652 23.9374 34.8913C23.8025 34.9229 21.6312 35.5326 20.8338 35.5957Z" fill="#191611"/>
<path d="M34.7941 25.0506C34.4752 25.4501 34.3525 25.9127 34.1562 26.3542C34.0458 26.617 33.8618 26.8799 33.6288 27.1006C33.5429 26.9955 33.6288 26.9009 33.6778 26.8168C33.825 26.575 33.9477 26.3332 34.0458 26.0809C34.0581 26.0598 34.0704 26.0283 34.0826 26.0073C34.2667 25.7129 34.328 25.3765 34.4875 25.0716C34.5243 24.998 34.5856 24.9349 34.512 24.8508C34.1194 24.7878 33.7146 24.8403 33.3098 24.8088C32.8437 24.7247 32.3775 24.6511 31.9236 24.5039C31.1753 24.2831 30.5252 23.9152 29.9118 23.4947C29.6542 23.3264 29.4334 23.1372 29.2126 22.948C28.9182 22.7062 28.6606 22.4433 28.4888 22.128C28.4275 22.0228 28.3048 21.9072 28.4275 21.7705C28.6483 21.8231 28.6728 22.0228 28.7219 22.1385C28.8323 22.4433 29.1881 22.5695 29.2985 22.8218C29.4211 22.8534 29.4579 22.7692 29.5193 22.7587C29.7033 22.7272 29.8014 22.8428 29.9118 22.9269C30.5006 23.3685 31.1508 23.7575 31.8746 24.0203C33.2485 24.5249 34.6224 24.6196 35.9963 23.9993C36.0945 23.9572 36.1926 23.8941 36.303 23.9572C36.2539 24.0518 36.2417 24.1465 36.3643 24.2095C36.3153 24.2306 36.2785 24.2516 36.2294 24.2726C35.7632 24.2936 35.3707 24.4934 34.9536 24.609C34.88 24.7667 34.9659 24.9455 34.7941 25.0506Z" fill="#241A10"/>
<path d="M5.88061 15.7153C5.70887 15.7258 5.92968 15.8099 5.85607 15.8309C5.75794 15.9045 5.67207 15.6942 5.57393 15.8309C5.50033 15.8519 5.42672 15.8309 5.37765 15.7888C5.12004 15.6101 4.89924 15.4104 4.69069 15.2001C4.65389 15.1686 4.64162 15.1265 4.66616 15.074L4.67843 15.0634C4.73976 15.0109 4.70296 14.9793 4.66616 14.9268C4.60482 14.8427 4.62936 14.7796 4.73976 14.748C4.89923 14.8952 5.05871 15.0319 5.21818 15.1791C5.18138 15.2211 5.10778 15.2001 5.05871 15.2211C5.12004 15.2422 5.16911 15.2106 5.21818 15.1896C5.42672 15.3683 5.6598 15.5365 5.88061 15.7153Z" fill="#1F1D19"/>
<path d="M34.7941 25.051C34.8063 24.9038 34.9045 24.7567 34.7695 24.5569C35.3093 24.5043 35.6896 24.1154 36.2416 24.2625C35.9104 24.4938 35.4933 24.5569 35.113 24.6831C34.9781 24.8408 35.0026 25.051 34.8554 25.1982C34.8309 25.1562 34.8063 25.1036 34.7941 25.051Z" fill="#211C17"/>
<path d="M42.2773 9.00763C42.2527 8.97609 42.2159 8.93404 42.1914 8.91301C42.4367 8.503 42.7925 8.15607 42.9642 7.71452C43.0133 7.58836 43.0869 7.43066 43.3077 7.43066C43.0501 7.98786 42.7066 8.52402 42.2773 9.00763Z" fill="#1D1812"/>
<path d="M4.72744 14.7579C4.69064 14.9051 4.69064 14.9051 4.80105 15.0522C4.76425 15.0943 4.71518 15.0838 4.66611 15.0838C4.64158 14.9576 4.42077 14.8315 4.67838 14.7158C4.69064 14.7263 4.71518 14.7368 4.72744 14.7579Z" fill="#1F1D18"/>
<path d="M4.6661 15.0839C4.93598 15.3678 5.23039 15.6201 5.57387 15.8304C6.18722 16.3665 7.54888 17.0078 7.88009 16.9237C7.96596 16.7871 7.84329 16.7135 7.76968 16.6294C6.28536 15.0629 5.43893 13.2652 5.18132 11.2782C4.82557 8.58686 5.61067 6.13731 7.54888 3.99265C9.05773 2.33158 10.9591 1.15411 13.3022 0.481276C13.3635 0.46025 13.4371 0.449737 13.5475 0.428711C13.388 0.786156 13.2286 1.10155 13.0814 1.43797C12.7992 2.10029 12.5539 2.78364 12.3944 3.4775C12.1 4.79164 12.5171 5.90603 13.7315 6.7681C14.762 7.4935 16.3567 7.43042 17.3381 6.65245C18.393 5.81141 18.0863 4.26599 16.737 3.69828C16.6511 3.66674 16.5775 3.6352 16.4916 3.60366C16.2585 3.5511 16.2585 3.5511 16.1727 3.40391C16.2585 3.25673 16.4303 3.17262 16.553 3.05698C17.4853 2.47876 18.5157 2.37363 19.6075 2.60492C20.7238 2.84672 21.5947 3.42494 22.3798 4.12932C22.1345 5.07549 21.9996 6.02167 21.9382 6.98887C21.8769 7.94556 21.926 8.90225 21.9996 9.89048C21.423 9.96407 20.871 9.96407 20.319 9.9851C18.3562 10.0482 16.3812 9.99561 14.4185 9.97459C13.572 9.96408 12.7256 9.96407 11.8914 10.1007C11.597 10.1428 11.3149 10.2164 11.0573 10.3531C10.5543 10.6264 10.4439 11.0995 10.6034 11.52C10.7015 11.8039 10.8855 12.0877 11.0941 12.3295C11.8669 13.2442 12.9096 13.9065 14.0259 14.4847C16.1727 15.5781 18.4912 16.2509 20.9446 16.6083C21.0059 16.6189 21.0673 16.6189 21.1286 16.6189C21.4353 16.6294 21.742 16.6189 22.0241 16.7345C21.8769 16.9553 21.742 17.176 21.5702 17.3758C21.1286 17.8909 20.4907 17.9961 19.7915 17.933C19.3744 17.9014 18.9573 17.8489 18.5402 17.8173C17.7183 17.7332 16.6388 18.2589 16.234 18.8897C15.7679 19.6046 15.8537 20.3089 16.2095 21.0133C16.4671 21.539 16.8474 22.0121 17.1908 22.4957C17.4975 22.9267 17.7674 23.3577 17.9391 23.8413C18.3562 24.9873 17.8042 26.0596 16.553 26.5853C15.7556 26.9112 14.9214 27.0689 14.0505 27.1424C13.0814 27.2266 12.1 27.2896 11.1677 27.5945C10.3212 27.8784 9.67109 28.3199 9.41348 29.0874C9.19267 29.7602 9.35215 30.412 9.69563 31.0218C10.5789 32.5567 12.0509 33.587 13.7192 34.449C13.8297 34.5016 14.0382 34.5121 13.9646 34.7014C13.8419 34.7329 13.7315 34.7014 13.6088 34.6803C12.8973 34.4806 12.2472 34.1862 11.5848 33.8918C10.4685 33.3977 9.45028 32.7775 8.43211 32.1467C6.77605 31.0533 4.83784 29.2871 4.54343 29.0033C2.33534 26.785 1.10863 24.1883 0.593409 21.3392C0.0781889 18.4692 0.409402 15.6517 1.61158 12.9288C1.80786 12.4662 2.06547 12.0246 2.28627 11.5831C2.32308 11.52 2.37214 11.4569 2.44575 11.3518C2.66655 12.1718 2.96097 12.9077 3.41485 13.5911C3.74606 14.1167 4.13861 14.6424 4.6661 15.0839Z" fill="#F4B740"/>
<path d="M43.6754 5.57982C43.565 5.68495 43.6386 5.84265 43.5405 5.94778C43.3688 6.46292 43.0743 6.93601 42.7431 7.38807C41.5164 9.08068 39.934 10.4999 38.1184 11.7195C36.2538 12.96 34.2175 13.9377 31.9849 14.6211C30.2184 15.1572 28.4028 15.5252 26.5382 15.6724C24.1216 15.8616 21.7295 15.7355 19.3742 15.2624C17.6323 14.9154 15.9762 14.4003 14.406 13.6749C13.2039 13.1177 12.0998 12.4554 11.1921 11.5723C11.0571 11.4356 10.9099 11.2884 10.8608 11.1097C10.8608 10.7417 11.1798 10.6051 11.4987 10.4999C12.014 10.3317 12.5537 10.2897 13.0935 10.2792C14.173 10.2687 15.2525 10.2581 16.332 10.2897C18.1353 10.3317 19.9385 10.3002 21.7418 10.2056C21.8277 10.2056 21.9013 10.2056 22.0117 10.2056C22.1098 10.6997 22.2079 11.1833 22.3061 11.709C21.8399 11.6564 21.4228 11.5513 20.9935 11.4461C20.834 11.4041 20.6868 11.362 20.5273 11.3305C20.4169 11.2989 20.3065 11.2884 20.2329 11.4041C20.2207 11.5618 20.3679 11.5828 20.4905 11.6143C22.4042 12.1505 24.367 12.3502 26.3788 12.2451C29.8626 12.0559 32.9049 10.9415 35.5669 9.03863C35.7877 8.88093 36.0207 8.71272 36.1925 8.534C36.1925 8.41835 36.1189 8.36579 35.9717 8.34476C35.2479 8.91247 34.4751 9.45915 33.5796 9.93224C33.3465 9.30145 33.1257 8.70221 32.9049 8.09245C33.0153 7.98732 33.1625 7.96629 33.2974 7.92424C35.6037 7.14627 37.7872 6.13702 40.0076 5.19084C40.67 4.90698 41.3201 4.63364 42.0316 4.45492C42.0684 4.44441 42.1052 4.4339 42.1543 4.42338C43.2706 4.17107 43.7122 4.46544 43.6754 5.46418C43.6632 5.49572 43.6754 5.53777 43.6754 5.57982Z" fill="#E8AD76"/>
<path d="M31.8008 6.51598C29.4455 7.79858 24.416 8.51347 22.2325 7.88268C22.2079 7.20984 22.2693 6.52649 22.3674 5.85366C22.4901 4.90748 22.7109 3.97181 23.0912 3.06769C23.312 2.54203 23.6064 2.03741 24.0112 1.59586C24.7595 0.807376 25.7041 0.628654 26.7713 1.0702C27.7159 1.4697 28.4519 2.08997 29.1143 2.76281C30.1938 3.86668 31.028 5.0862 31.7395 6.37931C31.764 6.42136 31.7763 6.46341 31.8008 6.51598Z" fill="#E8AD76"/>
<path d="M14.357 13.5595C16.4056 14.5161 18.6015 15.1049 20.8954 15.4308C22.5024 15.6621 24.1217 15.7252 25.7409 15.641C28.1698 15.5149 30.5251 15.0523 32.7945 14.2638C34.3279 13.7277 35.7632 13.0443 37.1249 12.2348C38.4988 11.4148 39.7378 10.4686 40.8541 9.4173C41.8845 8.4501 42.7555 7.37777 43.3934 6.16876C43.4302 6.09517 43.6264 5.51695 43.6755 5.44336C43.7123 6.05312 43.2339 6.85211 43.0376 7.28315C42.8045 7.79829 42.4611 8.27138 42.0808 8.72344C41.9458 8.88114 41.8354 9.05986 41.7128 9.20704C41.2343 9.82731 40.6823 10.374 40.0812 10.9102C38.8668 12.0035 37.5051 12.9497 36.0085 13.7487C33.322 15.1995 30.3902 16.0721 27.2498 16.4295C25.3975 16.6398 23.5329 16.6188 21.6683 16.4085C19.5583 16.1667 17.5342 15.6726 15.6206 14.8946C14.1117 14.2849 12.7255 13.5384 11.6092 12.4556C11.1921 12.0456 10.9345 11.6671 10.8486 11.0994C11.7932 12.2138 12.9831 12.9182 14.357 13.5595Z" fill="#B0794E"/>
<path d="M22.6866 11.7196C22.564 11.3727 22.5149 11.0468 22.4658 10.6683C26.146 11.0257 29.6176 10.5316 32.9174 9.07031C33.0401 9.40673 33.175 9.69058 33.2486 10.0375C32.1937 10.6473 31.0406 11.0888 29.8138 11.4042C27.4831 12.014 25.1155 12.1086 22.6866 11.7196Z" fill="#E25229"/>
<path d="M22.3798 10.3637C22.343 10.0378 22.3185 9.7434 22.2939 9.39647C24.0481 9.57519 25.7901 9.57519 27.5075 9.32287C29.2249 9.07056 30.8564 8.57645 32.4266 7.87207C32.5493 8.18746 32.6597 8.48183 32.7823 8.80773C29.507 10.2585 26.0477 10.7632 22.3798 10.3637Z" fill="#FAE9A4"/>
<path d="M22.2939 8.20908C25.741 8.6296 28.955 8.16702 31.9727 6.7793C32.1199 7.01058 32.2549 7.35752 32.2794 7.60983C29.1881 9.01858 25.9127 9.50218 22.3921 9.1132C22.3553 8.82935 22.3307 8.53498 22.2939 8.20908Z" fill="#ACDB45"/>
<path d="M16.4795 3.59404C16.2586 3.53097 16.1237 3.52045 15.9888 3.50994C16.136 3.33122 16.2955 3.16301 16.5408 3.04736C16.7371 2.9212 16.2954 3.25762 16.2218 3.38378" fill="#F4B740"/>
<path d="M21.9748 16.7453C21.6926 16.6823 21.2019 16.6507 20.9198 16.5982C21.3001 16.5246 21.8766 16.5246 22.2569 16.5982C22.7108 16.6823 23.1524 16.7138 23.6063 16.7033C24.0356 16.6928 24.4772 16.7453 24.9066 16.7453C25.2378 16.7559 25.569 16.7664 25.9002 16.6612C26.1824 16.5771 26.4768 16.7138 26.7712 16.6507C27.176 16.5561 27.5808 16.5141 27.9979 16.5982C27.9734 16.7138 27.863 16.7243 27.7648 16.7348C26.8939 16.861 26.0229 16.9346 25.1397 16.9346C24.649 16.9556 24.146 16.9136 23.6063 16.9661C23.6921 17.3341 23.8148 17.66 23.8884 18.0069C24.0479 18.5641 24.1092 19.1423 24.1951 19.7416C24.6122 19.71 24.9802 19.5734 25.385 19.5839C26.0229 19.6259 26.5749 19.8047 27.0288 20.2041C27.2864 20.4354 27.4582 20.6772 27.5072 20.9926C27.5808 21.676 27.0779 22.0755 26.5259 22.4539C26.121 22.7273 25.6549 22.906 25.201 23.0742C24.8943 23.1794 24.5754 23.274 24.2442 23.337C24.0847 23.3686 23.962 23.4317 23.9252 23.5788C23.8394 23.9783 23.6676 24.3463 23.5327 24.7353C22.7353 26.7012 21.3614 28.2782 19.2882 29.3926C18.8589 29.6239 18.3682 29.7711 17.9021 29.9498C17.5954 30.0654 17.4236 29.9393 17.4359 29.5923C17.4482 28.9721 16.7121 28.4779 16.2215 28.4359C15.559 28.3833 14.9947 28.5726 14.5409 28.9826C14.136 29.34 13.952 29.7816 13.8662 30.2757C13.7312 30.9695 13.952 31.6108 14.2097 32.2416C14.2097 32.3047 14.2097 32.3573 14.1483 32.3993C14.0502 32.3468 13.9766 32.126 13.8294 32.3573C13.719 32.3468 13.6699 32.2732 13.6454 32.1996C13.2037 31.1062 13.1179 30.0234 13.8662 28.9931C14.3937 28.2677 15.51 27.8261 16.3809 28.0049C17.117 28.1625 17.6199 28.5515 17.8653 29.1718C17.8898 29.2349 17.9021 29.2875 17.9389 29.34C17.9511 29.3505 17.9634 29.361 17.9879 29.3716C19.9507 29.1928 23.1647 25.713 23.3732 23.5263C23.2628 23.4527 23.1401 23.4842 23.0175 23.4947C21.8521 23.5368 20.7358 23.4001 19.6808 22.9691C18.0493 22.3173 16.982 21.2449 16.6017 19.7205C16.5527 19.5418 16.5527 19.3526 16.5649 19.1739C16.5772 19.0162 16.6385 18.8795 16.8226 18.8164C17.0066 18.7639 17.1415 18.8269 17.2642 18.9321C17.4359 19.0687 17.5708 19.2159 17.6935 19.3736C17.9266 19.6785 18.221 19.9518 18.5154 20.2147C19.3864 20.9821 20.4168 21.1503 21.5699 20.8244C22.2324 20.6352 22.8335 20.3303 23.4468 20.0675C23.6922 19.9623 23.6553 19.7626 23.6431 19.5839C23.5572 18.8585 23.4223 18.1436 23.1892 17.4392C23.0052 16.8925 23.0052 16.8925 22.3428 16.8295C22.2324 16.8295 22.0729 16.8715 21.9748 16.7453Z" fill="#1D1812"/>
<path d="M30.6848 16.1248C31.9728 15.7884 33.224 15.3784 34.4262 14.8737C34.7452 14.7476 34.8433 14.7791 34.9046 15.0735C34.966 15.3994 35.0151 15.7253 35.0151 16.0617C35.0028 16.4087 34.9905 16.7556 35.0519 17.1025C35.1009 17.3443 35.0764 17.5861 35.0396 17.8384C35.0151 18.0172 35.0519 18.1749 35.2604 18.2905C35.4444 18.3956 35.518 18.9108 35.3831 19.058C35.3217 19.121 35.2359 19.1 35.15 19.079C35.1991 19.4049 35.15 19.6887 35.0151 19.9726C34.9537 20.0987 34.9537 20.2249 34.9537 20.3616C34.9537 20.4772 35.0028 20.6034 34.966 20.698C34.831 21.1185 34.8556 21.5811 34.6348 21.9911C34.5857 22.0857 34.4876 22.1698 34.3404 22.0752C34.2913 21.9911 34.3158 21.907 34.3281 21.8229C34.598 20.8242 34.7697 19.8149 34.8556 18.7951C34.8678 18.711 34.8678 18.6164 34.8556 18.5323C34.8556 18.4797 34.8433 18.4272 34.7942 18.3746C34.6593 18.3115 34.4998 18.3431 34.3526 18.3536C33.359 18.4692 32.3776 18.5849 31.3717 18.5849C31.2245 18.5849 31.0896 18.5954 30.9546 18.5428C30.9178 18.5323 30.8933 18.5113 30.8688 18.4797C30.8197 18.3956 30.8074 18.3115 30.8197 18.2274C30.832 17.6177 30.7461 17.0184 30.6479 16.4087C30.6479 16.314 30.6479 16.2194 30.6848 16.1248Z" fill="#A52A1C"/>
<path d="M30.6846 16.125C30.8319 16.4089 30.8073 16.7137 30.8687 17.0081C30.9545 17.5022 30.9545 17.9963 30.9423 18.4904C30.8441 18.5851 30.7092 18.5746 30.5742 18.5746C28.955 18.6061 27.3603 18.4589 25.7778 18.2066C25.6306 18.1856 25.4834 18.154 25.3484 18.0804C25.3116 18.0699 25.2871 18.0489 25.2626 18.0279C25.1154 17.6494 24.9682 17.2709 25.1276 16.8609C26.0477 16.8294 26.9677 16.7558 27.8755 16.6401C27.9245 16.6296 29.7155 16.3142 30.5497 16.1355C30.5865 16.1355 30.6356 16.1355 30.6846 16.125Z" fill="#AC5032"/>
<path d="M34.7942 15.0739C34.7696 14.9267 34.5979 14.8216 34.4261 14.8636C34.6838 14.727 34.88 14.6429 34.9536 14.6113C35.1008 14.6534 35.1254 14.7375 35.1499 14.8216C35.432 15.8519 35.6406 16.8822 35.7265 17.9335C35.8123 18.9427 35.7878 19.9309 35.6774 20.9402C35.6283 21.4028 35.5179 21.8548 35.4688 22.3174C35.064 22.412 34.7083 22.2859 34.3525 22.1177C34.6469 22.0125 34.9291 22.2018 35.2971 22.1492C35.6038 20.8771 35.6528 19.5735 35.5915 18.2699C35.0027 18.1542 35.0027 18.1542 35.015 17.6391C35.015 17.187 34.8923 15.6942 34.7942 15.0739Z" fill="#771E12"/>
<path d="M5.40186 29.7812C5.69627 30.0231 6.03975 30.2859 6.28509 30.5487C6.12562 30.6223 6.02748 30.5382 5.91708 30.5172C5.88027 30.3384 5.7208 30.1702 5.59813 30.0441C5.53679 29.9705 5.41412 29.8969 5.40186 29.7812Z" fill="#191611"/>
<path d="M25.2992 18.0283C27.1516 18.3963 29.0284 18.5224 30.9298 18.4909V18.5014C31.0893 18.6591 31.028 18.8483 31.0402 19.0271C31.0525 19.2794 31.0402 19.5317 30.9789 19.784C30.9544 19.8786 30.9544 20.0048 30.7581 19.9732C29.9607 19.9102 29.286 20.1099 28.7463 20.6145C28.4028 20.9404 28.2679 21.3189 28.4396 21.7499C28.5623 22.223 28.9426 22.5595 29.286 22.9064C29.4823 23.1587 29.7645 23.369 29.8994 23.6528C29.9362 23.8526 29.8381 24.0313 29.7522 24.21C29.1756 25.3875 28.4519 26.4808 27.5441 27.4901C26.2438 28.9304 24.6736 30.1078 22.8335 31.012C21.7049 31.5692 20.5273 31.9792 19.2392 32.1369C18.7976 32.1894 18.356 32.221 17.9144 32.1158C17.8899 32.0843 17.8899 32.0423 17.9144 32.0212C18.1597 31.811 18.2579 31.5376 18.356 31.2643C18.5032 31.0961 18.7363 31.033 18.9326 30.9384C20.7726 30.0027 22.2079 28.7411 23.3119 27.1747C23.9498 26.2601 24.4528 25.3034 24.784 24.2731C24.8085 24.231 24.8331 24.1995 24.8699 24.1785C25.2747 24.0313 25.704 23.9472 26.0843 23.779C26.1702 23.7474 26.2561 23.7474 26.3542 23.779C26.4523 23.821 26.5014 23.8946 26.575 23.9577C26.9675 24.3362 27.5809 24.3887 27.9857 24.0628C28.3905 23.7474 28.4028 23.2218 27.998 22.8433C27.9612 22.8013 27.9121 22.7697 27.8753 22.7277C27.8017 22.6225 27.8262 22.5069 27.8385 22.4018C27.863 22.223 27.8876 22.0233 27.7526 21.8761C27.5441 21.6238 27.446 21.3399 27.446 21.0351C27.2497 20.3202 26.4646 19.7525 25.6304 19.7209C25.5568 19.7209 25.4342 19.7104 25.3483 19.7209C25.2747 19.6578 25.336 19.5212 25.336 19.4371C25.3483 19.0586 25.2747 18.6801 25.2379 18.3017C25.2256 18.186 25.2133 18.0914 25.2992 18.0283Z" fill="#EC6A46"/>
<path d="M36.3274 23.9468C35.8367 24.136 35.3706 24.3673 34.8308 24.4304C34.0702 24.525 33.3342 24.504 32.5982 24.3148C31.5309 24.0414 30.6354 23.5368 29.8013 22.927C29.5437 22.7378 29.2125 22.5065 29.1021 22.2752C29.4823 21.3185 30.9176 20.8034 31.9726 21.287C32.3406 21.4552 32.6718 21.6655 32.9907 21.9073C33.5796 22.3383 34.1193 22.8219 34.7817 23.1688C35.4319 23.5053 36.1189 23.5683 36.8304 23.3476C36.9162 23.316 37.0144 23.2635 37.1125 23.3265C36.904 23.5788 36.5727 23.726 36.3274 23.9468Z" fill="#59311E"/>
<path d="M30.7949 19.9725C30.8317 19.8253 30.9053 19.594 30.9299 19.4048C30.9667 19.1104 30.9421 18.8055 30.9421 18.5006C32.2792 18.5322 33.6041 18.3219 34.9903 18.2168C34.9535 19.5625 34.7327 20.824 34.3647 22.0646C34.3279 22.0961 34.2788 22.0961 34.242 22.0751C33.5796 21.7912 33.1011 21.3076 32.5614 20.9081C32.1811 20.6243 31.7886 20.3404 31.3347 20.1512C31.1384 20.0671 30.9789 20.0356 30.7949 19.9725Z" fill="#E43727"/>
<path d="M37.1128 23.3156C36.0578 23.7467 35.1255 23.5364 34.2545 22.9477C33.6044 22.5061 33.0278 21.9805 32.3409 21.5705C31.3104 20.9397 30.3291 21.0974 29.4826 21.8018C29.3109 21.9384 29.2128 22.0015 29.0901 22.2748C28.6117 21.6861 28.5381 21.2656 28.9061 20.8871C29.3845 20.3825 30.2677 20.0461 31.1019 20.3825C31.5067 20.5507 31.8747 20.761 32.2059 21.0343C32.7702 21.4864 33.3222 21.9595 33.9969 22.2959C34.782 22.6954 35.5917 22.79 36.4381 22.401C36.8797 22.1907 37.2232 21.8964 37.5421 21.581C37.8243 21.2971 38.1187 20.9502 38.3886 20.6033C38.4131 20.5717 38.4376 20.5507 38.4622 20.5192C38.4867 20.4771 38.548 20.4351 38.6339 20.4666C38.6952 20.5192 38.7198 20.4981 38.683 20.5612C38.5848 20.8451 38.4622 21.0974 38.4254 21.2446C38.2291 21.581 38.0942 21.9384 37.9347 22.2959C37.7016 22.6533 37.444 23.0003 37.1128 23.3156Z" fill="#7B412A"/>
<path d="M34.23 22.065C34.2668 22.065 34.3159 22.065 34.3527 22.0544C34.414 22.0439 34.5367 22.065 34.5121 21.9808C34.4631 21.8126 34.6471 21.8652 34.7084 21.7916C34.6471 21.4972 34.5735 21.1819 34.8556 20.919C34.9169 20.8665 34.8679 20.7929 34.8679 20.7193C34.8433 20.3934 34.8065 20.078 34.9905 19.7521C35.0764 19.6049 35.1255 19.3946 35.0519 19.1949C35.0151 19.0897 34.9783 18.9636 35.0887 18.869C35.2359 18.8585 35.1745 19.0056 35.3095 19.0372C35.3218 18.8269 35.334 18.6272 35.3463 18.4274C35.1991 18.3538 34.8433 17.9964 34.8311 17.9333C34.8188 17.8702 34.9537 17.9754 35.0396 18.0595C35.2114 18.2382 35.5426 18.2487 35.6775 18.1751C35.7511 19.5313 35.6775 20.9085 35.3586 22.3068C35.0028 22.2437 34.6716 22.1806 34.3404 22.1175C34.3158 22.107 34.279 22.086 34.23 22.065Z" fill="#A52A1C"/>
<path d="M37.9102 22.2749C37.9838 21.8965 38.131 21.539 38.4008 21.2236C38.2904 21.5916 38.0574 22.0647 37.9102 22.2749Z" fill="#7B412A"/>
<path d="M38.3149 21.4766C38.3149 21.4345 38.5725 20.625 38.5725 20.5935C38.4989 20.5304 38.4253 20.583 38.364 20.5935C38.4376 20.4989 38.5848 20.3832 38.6584 20.2676C38.7934 20.5094 38.4131 21.2873 38.3149 21.4766Z" fill="#7B412A"/>
<path d="M14.1484 32.252C14.2588 32.2205 14.2956 32.2941 14.3324 32.3572C14.725 32.9354 15.3752 33.2087 16.0498 33.4821C16.7368 33.7554 17.4606 33.9341 18.2211 33.9867C19.2761 34.0708 20.3311 34.0287 21.3738 33.808C23.6064 33.3454 25.5569 32.3887 27.3601 31.2112C28.7095 30.3176 29.8872 29.2663 30.9299 28.0994C31.5432 27.416 32.0339 26.6801 32.5491 25.9442C32.635 25.8285 32.7086 25.7024 32.7086 25.5237C32.5246 25.3555 32.2425 25.3029 32.0094 25.1978C31.7763 25.0926 31.5555 24.998 31.347 24.8613C31.2611 24.8088 31.1507 24.7562 31.1752 24.6406C31.2734 24.5775 31.3715 24.6195 31.4574 24.6616C31.9726 24.9665 32.5737 25.1242 33.1012 25.4185C33.4814 25.5447 33.8863 25.5552 34.2788 25.6814C34.2665 25.8391 34.2052 25.9547 34.1316 26.0703C33.9721 26.4278 33.7513 26.7642 33.5796 27.1217C32.7945 28.4253 31.8254 29.6027 30.6845 30.6961C29.74 31.6107 28.6605 32.3887 27.5196 33.1036C26.7468 33.5872 25.9126 33.9867 25.0662 34.3546C23.8027 34.8803 22.4901 35.2377 21.0916 35.3639C20.5641 35.3954 20.0367 35.3954 19.5092 35.3639C17.571 35.1747 15.964 34.4493 14.7495 33.1351C14.5165 32.8933 14.1484 32.3046 14.1484 32.252Z" fill="#A3271A"/>
<path d="M33.5674 27.1011C33.6901 26.7226 33.8986 26.3862 34.1194 26.0498C34.0703 26.3337 33.8863 26.5755 33.7514 26.8383C33.7023 26.9224 33.6655 27.017 33.6287 27.1011C33.6042 27.1011 33.5919 27.1011 33.5674 27.1011Z" fill="#731D13"/>
<path d="M21.975 16.7461C22.343 16.7776 22.6988 16.7987 23.0791 16.8302C23.4962 17.8605 23.717 18.9223 23.7906 20.0262C22.8583 20.4152 21.9996 20.9198 20.9446 21.0565C20.0736 21.1721 19.3131 20.9408 18.6629 20.4467C18.209 20.1103 17.8655 19.7003 17.5221 19.2903C17.4239 19.1746 17.3135 19.0485 17.1786 18.9538C16.97 18.7961 16.7492 18.8592 16.6756 19.101C16.6143 19.3008 16.6511 19.5005 16.7002 19.7003C17.1172 21.3613 18.3072 22.4547 20.1227 23.0645C21.2022 23.4324 22.3308 23.527 23.5452 23.4114C23.2508 24.673 22.6988 25.8084 21.8524 26.8387C20.8464 28.0687 19.5829 29.0254 17.9023 29.5721C17.841 29.1726 17.6815 28.8361 17.3626 28.5733C16.5039 27.8479 15.1545 27.911 14.259 28.7415C13.523 29.4249 13.339 30.2659 13.4616 31.1595C13.523 31.5801 13.6088 32.0006 13.8542 32.3896C14.0505 32.8837 14.4185 33.2937 14.811 33.6827C15.6084 34.4396 16.5775 34.9863 17.7061 35.3227C17.6693 35.3753 17.6079 35.3648 17.5466 35.3753C16.5898 35.3858 15.6452 35.2912 14.7251 35.0073C14.4798 34.8917 14.1609 34.9127 13.9769 34.6919C13.5598 34.4501 13.0936 34.2609 12.6888 33.9981C11.413 33.1886 10.2599 32.2844 9.58521 31.0334C8.99639 29.961 9.06999 28.8361 10.0514 28.0687C10.6157 27.6271 11.3271 27.4274 12.0632 27.2907C13.02 27.112 14.0014 27.1225 14.9582 26.9543C15.7924 26.8071 16.6143 26.5969 17.2399 26.0712C17.9514 25.472 18.1231 24.736 17.8533 23.9265C17.6079 23.1696 17.0927 22.5388 16.6266 21.887C16.1972 21.2772 15.8169 20.657 15.8169 19.9105C15.8292 18.8487 16.786 17.9236 18.025 17.7659C18.577 17.6923 19.1045 17.7869 19.632 17.85C20.6992 17.9656 21.2635 17.7448 21.7665 16.9353C21.8033 16.8407 21.8524 16.7566 21.975 16.7461Z" fill="#FCEFA8"/>
<path d="M13.9647 34.6602C14.21 34.7653 14.4799 34.8284 14.713 34.9756C14.3204 34.923 13.9524 34.8073 13.5967 34.6602C13.7194 34.6707 13.842 34.6707 13.9647 34.6602Z" fill="#F4B740"/>
<path d="M7.84326 31.7793C8.06407 31.8634 8.23581 32.0001 8.40755 32.1473C8.14994 32.0947 7.95367 31.9896 7.84326 31.7793Z" fill="#3A280E"/>
<path d="M19.4849 35.3535C20.0124 35.3535 20.5398 35.3535 21.0673 35.3535C20.5398 35.4271 20.0124 35.4271 19.4849 35.3535Z" fill="#1C1A16"/>
<path d="M33.0155 25.4712C32.8315 25.3135 32.5862 25.2399 32.3531 25.1558C31.936 25.0086 31.5925 24.7668 31.1754 24.6301C31.065 24.6722 30.9792 24.6091 30.8933 24.567C30.5375 24.3778 30.2431 24.1255 29.961 23.8732C29.8874 23.8101 29.8506 23.726 29.8506 23.6419C29.8506 23.5578 29.8506 23.4842 29.9487 23.4316C30.5743 23.8101 31.1877 24.1886 31.9115 24.4199C32.3408 24.6091 32.807 24.6722 33.2854 24.7458C33.2854 25.0401 33.1504 25.2609 33.0155 25.4712Z" fill="#98271A"/>
<path d="M33.0157 25.4705C33.1015 25.3023 33.1874 25.0815 33.1874 24.8292C32.7458 24.7135 32.2919 24.682 31.9116 24.4297C32.3778 24.5348 32.8562 24.6399 33.3223 24.7451C33.813 24.8502 34.1565 24.8397 34.5981 24.7871C34.7085 24.9133 34.5859 25.0079 34.5613 25.1236C34.4141 25.4389 34.3896 25.7859 34.132 26.0697C34.1688 25.9646 34.1933 25.8595 34.2301 25.7333C33.813 25.6387 33.4082 25.5966 33.0157 25.4705Z" fill="#731D13"/>
<path d="M29.9608 23.4317C29.9363 23.4948 29.924 23.5683 29.8995 23.6314C29.8872 23.6525 29.8627 23.6525 29.8382 23.6314C29.6419 23.3896 29.4088 23.1688 29.2861 22.8955C29.5069 23.0847 29.7277 23.253 29.9608 23.4317Z" fill="#9E4631"/>
<path d="M5.20566 15.2004C5.05846 15.3476 5.05846 15.3476 4.88672 15.1689C5.00939 15.0427 5.09526 15.232 5.20566 15.2004C5.20566 15.1899 5.20566 15.2004 5.20566 15.2004Z" fill="#1F1D18"/>
<path d="M29.8382 23.6531C29.875 23.6426 29.8627 23.6426 29.8995 23.6426C30.1816 24.0316 30.5742 24.3049 31.0035 24.5467C31.1017 24.5993 31.1875 24.6518 31.2734 24.7254C31.6046 24.9777 32.0217 25.1144 32.4143 25.2826C32.5492 25.3352 32.6964 25.3772 32.8313 25.4824C32.8068 25.7767 32.5983 26.008 32.4388 26.2603C31.8009 27.2696 31.0158 28.1947 30.1448 29.0568C29.4824 29.7086 28.7587 30.3079 27.9981 30.8756C26.8204 31.7482 25.5201 32.4525 24.1339 33.0518C23.0299 33.5249 21.8645 33.8823 20.6378 34.04C19.2516 34.2187 17.8654 34.1767 16.5283 33.7562C15.8046 33.5249 15.1053 33.241 14.541 32.7679C14.3816 32.6313 14.2834 32.442 14.1485 32.2738C13.7191 31.4223 13.5965 30.5497 13.9645 29.6561C14.2589 28.9622 15.1299 28.3104 16.1848 28.384C16.835 28.4365 17.4974 29.0043 17.522 29.572C17.522 29.6981 17.5465 29.8453 17.6446 29.9609C17.9758 29.9294 18.2703 29.7612 18.5769 29.6455C20.2207 28.9937 21.4474 27.9424 22.4043 26.6493C22.8459 26.0606 23.1771 25.4193 23.4593 24.7675C23.5574 24.6098 23.5451 24.3785 23.8027 24.3364C24.1339 24.2839 24.4652 24.1367 24.8086 24.2944C24.7473 24.7465 24.5265 25.167 24.3302 25.5875C23.7169 26.8386 22.9072 27.9635 21.8523 28.9832C20.8586 29.9399 19.6932 30.6969 18.3807 31.2856C18.2703 31.2856 18.258 31.2015 18.2335 31.1384C18.0126 30.6338 17.5342 30.4235 16.9577 30.3815C16.4179 30.3394 15.9272 30.4866 15.5715 30.8651C15.2648 31.191 15.3016 31.6325 15.6328 31.9374C16.1235 32.3895 16.9331 32.4946 17.6078 32.2107C17.706 32.1687 17.7796 32.0741 17.9145 32.1266C20.2821 32.2213 22.2571 31.3592 24.1217 30.2448C24.9804 29.7297 25.7532 29.1409 26.4647 28.4891C27.7405 27.3222 28.7832 26.0185 29.507 24.5362C29.6296 24.2208 29.8136 23.9685 29.8382 23.6531Z" fill="#E43727"/>
<path d="M17.829 21.2238C17.3138 20.6456 17.0561 19.9938 16.958 19.2158C17.1665 19.342 17.2647 19.4576 17.3751 19.5943C17.7799 20.1094 18.2338 20.572 18.8349 20.9189C19.8163 21.4761 20.8467 21.5182 21.9262 21.1292C22.6377 20.8769 23.3001 20.551 23.9871 20.2671C24.4655 20.0779 24.9562 19.9517 25.4837 19.9622C26.1216 19.9728 27.0416 20.5089 27.0784 21.0136C27.0907 21.0766 27.1275 21.3605 27.0416 21.4656C27.0048 21.5077 26.9312 21.1292 26.8821 21.1187C26.6736 21.0556 26.465 21.003 26.232 20.9925C25.5941 20.9505 25.0298 21.1187 24.4778 21.35C23.8521 21.6128 23.2265 21.8967 22.5764 22.1174C21.9998 22.3067 21.411 22.3592 20.8099 22.2962C19.9021 22.2015 19.0434 21.9597 18.2706 21.5392C18.0989 21.4341 17.9762 21.3184 17.829 21.2238Z" fill="#7B422A"/>
<path d="M17.8286 21.2232C18.1476 21.3809 18.4542 21.5386 18.7855 21.6858C19.6196 22.0432 20.5151 22.243 21.4597 22.222C22.0362 22.2114 22.5637 22.0432 23.079 21.8435C23.7782 21.5701 24.4406 21.2127 25.1766 21.0024C25.7287 20.8447 26.3175 20.8237 26.8818 21.0235C26.9063 21.034 26.9186 21.0445 26.9431 21.055C27.0658 21.1286 27.1394 21.2653 27.078 21.3914C27.0412 21.4755 26.9922 21.5596 26.9186 21.6332C26.5015 22.1168 25.9127 22.4217 25.287 22.6635C24.3547 23.0209 23.3734 23.2102 22.3552 23.1576C21.337 23.1051 20.3802 22.8948 19.4724 22.4638C18.9204 22.2114 17.8777 21.3178 17.8286 21.2232Z" fill="#59311E"/>
<path d="M27.4459 21.0137C27.4827 21.3185 27.7158 21.4027 27.8385 21.8021C27.9121 22.0965 27.9366 22.3068 27.9121 22.4434C27.8998 22.5381 27.8876 22.6117 27.9244 22.6958C27.814 22.7588 27.7281 22.6958 27.6422 22.6642C26.9921 22.4645 26.3542 22.8535 26.3664 23.4422C26.3664 23.5578 26.44 23.684 26.3296 23.7996C26.0966 23.8522 25.9494 23.8942 25.7654 23.9573C25.4709 24.0519 25.1152 24.1991 24.8085 24.2622C24.7963 24.2412 24.8208 24.1571 24.8331 24.1255C24.9312 23.7471 24.9557 23.3581 25.1765 23.0111C25.7776 22.7588 26.3787 22.517 26.8694 22.107C27.2374 21.8127 27.4705 21.4657 27.4459 21.0137Z" fill="#9E492D"/>
<path d="M25.2994 18.0285C25.3485 18.5647 25.4589 19.1429 25.4221 19.6791C24.9927 19.7211 24.5634 19.7421 24.1095 19.8893C24.0482 19.227 23.95 18.6172 23.8151 18.018C23.766 17.9339 23.7783 17.8498 23.8151 17.7236C24.3303 17.7236 24.8087 17.8708 25.2871 18.018L25.2994 18.0285Z" fill="#E43727"/>
<path d="M25.2997 18.017C24.809 18.0275 24.3674 17.8173 23.8889 17.7857C23.7908 17.8488 23.8521 17.9434 23.8276 18.0275C23.6804 17.6596 23.6436 17.2706 23.4351 16.8711C24.0361 16.8711 24.5759 16.8711 25.1157 16.8711C25.1279 17.2601 25.2138 17.6385 25.2997 18.017Z" fill="#A52B1C"/>
<path d="M25.1769 23.0117C25.1033 23.4112 24.8334 24.2417 24.8089 24.2628C24.4654 24.2628 24.1342 24.3364 23.803 24.3679C23.5576 24.3994 23.6189 24.6412 23.4595 24.7359C23.5699 24.3153 23.7907 23.9158 23.8643 23.4743C23.8888 23.3586 23.9992 23.2956 24.1219 23.2745C24.4899 23.243 24.8334 23.1063 25.1769 23.0117Z" fill="#962719"/>
<path d="M17.9025 32.094C17.1542 32.5671 16.1729 32.5146 15.5718 31.9679C15.1669 31.5999 15.1669 31.0848 15.5595 30.7168C16.2465 30.0755 17.5713 30.1491 18.1847 30.8325C18.3073 30.9692 18.3809 31.0533 18.3809 31.2635C18.3809 31.5999 18.2092 31.8733 17.9025 32.094Z" fill="#F09B81"/>
<path d="M26.3297 23.7998C26.158 23.1796 26.342 22.8011 26.9554 22.5908C27.2988 22.4647 27.63 22.5488 27.9367 22.696C28.317 22.9588 28.4642 23.2847 28.3293 23.6947C28.2066 24.0522 27.9245 24.2729 27.4828 24.3255C26.9554 24.3886 26.5751 24.1993 26.3297 23.7998Z" fill="#211E1C"/>
<path d="M26.2808 24.9349C26.1336 24.8088 26.0232 24.6721 25.9373 24.5144C25.9128 24.4619 25.8882 24.4093 25.876 24.3567C25.9128 24.2411 25.9864 24.199 26.0845 24.2201C26.1949 24.2516 26.2195 24.3357 26.2563 24.3988C26.6733 25.0611 27.5443 25.2188 28.2558 24.7667C28.4766 24.6196 28.6606 24.5985 28.6483 24.7457C28.5993 25.1137 27.4094 25.4921 26.7592 25.2188C26.5752 25.1452 26.4157 25.0506 26.2808 24.9349Z" fill="#281D16"/>
<path d="M21.0795 32.8093C21.0795 33.1562 20.7973 33.4085 20.3925 33.4085C19.9754 33.4085 19.6688 33.1457 19.681 32.7987C19.681 32.4834 20 32.2416 20.3802 32.2416C20.7973 32.231 21.0795 32.4623 21.0795 32.8093Z" fill="#EE9980"/>
<path d="M27.3233 24.0631C26.9307 24.0631 26.5995 23.7897 26.5872 23.4533C26.575 23.1169 26.9062 22.8225 27.2865 22.8225C27.679 22.812 28.047 23.1169 28.0348 23.4428C28.047 23.7792 27.7158 24.0526 27.3233 24.0631Z" fill="#FCFCFC"/>
<path d="M11.7983 25L9.70654 21.7461L7.59814 25H5.11621L8.40332 20.3599L5.27393 16.0186H7.78906L9.70654 18.957L11.6157 16.0186H14.1475L11.0181 20.335L14.3301 25H11.7983Z" fill="#FCEFA8"/>
</svg>
