<svg width="101" height="100" viewBox="0 0 101 100" fill="none"
    xmlns="http://www.w3.org/2000/svg">
    <g filter="url(#filter0_d)">
        <path d="M43.5 1C19.3923 1 0 20.1694 0 44C0 67.8306 19.3923 87 43.5 87C67.6077 87 87 67.8306 87 44C87 20.1694 67.6077 1 43.5 1ZM35.3438 73.7431C35.3438 74.1 35.3438 74.2806 35.161 74.4612C34.9783 75.1793 34.2562 75.5362 33.5298 75.1793C23.3812 71.9543 15.586 64.2487 12.3235 54.2168C6.88605 37.1974 16.3125 19.0987 33.5298 13.7237C33.7125 13.5431 34.0735 13.5431 34.2562 13.5431C34.9827 13.7237 35.3438 14.2612 35.3438 14.975V17.4819C35.3438 18.3763 34.9827 18.9138 34.2562 19.275C26.8264 21.9625 20.8452 27.6944 18.1264 35.2194C12.8716 49.0138 20.1187 64.6013 34.2562 69.6194C34.8 69.9763 35.3438 70.6944 35.3438 71.2319V73.7431ZM46.4014 64.6056C46.2187 65.5 45.675 66.0375 44.9529 66.0375H42.2341C41.3293 65.8569 40.7856 65.3194 40.7856 64.6056V60.3056C34.8043 59.4112 31.9029 56.1862 31.1808 51.7056V51.525C31.1808 50.8069 31.7245 50.2694 32.451 50.2694H35.5308C36.0745 50.2694 36.6183 50.6263 36.801 51.3444C37.3447 54.0319 38.976 56.0013 43.687 56.0013C47.1322 56.0013 49.6683 54.0319 49.6683 51.1638C49.6683 48.2957 48.037 47.2207 42.9606 46.3263C35.3481 45.4319 31.7245 43.1013 31.7245 37.1888C31.7245 32.7082 35.1698 29.1263 40.6073 28.4082V24.2888C40.7899 23.3944 41.3337 22.8569 42.0558 22.8569H44.7746C45.6794 23.0375 46.2231 23.575 46.2231 24.2888V28.5888C50.3904 28.9457 53.6529 31.9944 54.3793 35.9332V36.1138C54.3793 36.8319 53.8356 37.3694 53.1091 37.3694H50.2077C49.6639 37.3694 49.1202 37.0125 48.9375 36.475C48.0327 33.7875 46.2188 32.7125 42.9562 32.7125C39.3327 32.7125 37.5187 34.325 37.5187 36.8319C37.5187 39.3388 38.6063 40.775 44.0437 41.4888C51.6562 42.3832 55.4625 44.5332 55.4625 50.8069C55.4625 55.6444 51.8389 59.4069 46.4014 60.3013V64.6056ZM53.4702 75.3556C53.2875 75.5362 52.9264 75.5362 52.7437 75.5362C52.0173 75.3556 51.6562 74.8181 51.6562 74.1043V71.5974C51.6562 70.703 52.0173 70.1655 52.7437 69.8043C60.1735 67.1168 66.1548 61.3849 68.8736 53.8599C74.1283 40.0655 66.8812 24.478 52.7437 19.4599C52.2 19.103 51.6562 18.3849 51.6562 17.6668V15.1599C51.6562 14.803 51.6562 14.6224 51.8389 14.4418C52.0216 13.7237 52.7437 13.3668 53.4702 13.7237C63.4404 16.9487 71.4139 24.6543 74.6764 34.8668C80.1139 51.8819 70.6875 69.9806 53.4702 75.3556Z" fill="#2775CA"/>
    </g>
    <defs>
        <filter id="filter0_d" x="0" y="0" width="101" height="100" filterUnits="userSpaceOnUse" color-interpolation-filters="sRGB">
            <feFlood flood-opacity="0" result="BackgroundImageFix"/>
            <feColorMatrix in="SourceAlpha" type="matrix" values="0 0 0 0 0 0 0 0 0 0 0 0 0 0 0 0 0 0 127 0"/>
            <feOffset dx="7" dy="6"/>
            <feGaussianBlur stdDeviation="3.5"/>
            <feColorMatrix type="matrix" values="0 0 0 0 0 0 0 0 0 0 0 0 0 0 0 0 0 0 0.5 0"/>
            <feBlend mode="normal" in2="BackgroundImageFix" result="effect1_dropShadow"/>
            <feBlend mode="normal" in="SourceGraphic" in2="effect1_dropShadow" result="shape"/>
        </filter>
    </defs>
</svg>
