<svg width="42" height="42" fill="none" xmlns="http://www.w3.org/2000/svg">
  <path d="M21.448 24.418v-.086h.048v.098l-.048-.012zm.048 0v-.05.05zm-.373 0v-.05.05zm0 0h-.049v-.086h.048v.086zm.686-.025l-.012-.085.084-.012.012.085-.084.012zm-1.048-.024l.012-.049-.012.049-.048-.012.012-.086.048.012-.012.086zm1.409-.037l-.024-.085.084-.025.024.086-.084.024zm-1.722-.024l-.096-.024.024-.086.084.024-.012.086zm2.071-.073l-.024-.074.036-.012.024.037.012.049h-.048zm-2.456-.05l.012-.048-.012.049-.036-.012.024-.086.036.012-.024.086zm2.805-.072l-.036-.086.036-.024.036.085-.036.025zm-3.142-.061l.024-.037-.024.037-.036-.025.036-.085.036.024-.036.086zm3.467-.098l-.036-.085.084-.037.049.073-.097.049zm-3.756-.061l-.084-.049.048-.073.072.049-.036.073zm4.07-.134l-.049-.086.073-.049.048.074-.073.06zm-4.371-.061l-.072-.061.048-.074.072.05-.048.085zm4.66-.159l-.049-.073.072-.061.06.073-.084.061zm-4.985-.098l.036-.036-.036.036-.036-.024.06-.073.036.024-.06.073zm5.261-.146l-.06-.061.06-.061.06.06-.06.062zm-5.526-.122l.036-.037-.036.037-.036-.037.06-.06.036.036-.06.06zm5.767-.159l-.072-.06.024-.038.072.062-.024.036zm-5.972-.085l-.024-.037.036-.024-.036.024-.024-.037.06-.06.06.073-.072.06zm6.189-.208l-.072-.049.048-.073.072.049-.024.037-.036-.025.036.025-.024.036zm-6.405-.085l-.025-.037.037-.024-.037.024-.024-.036.072-.05.049.074-.072.049zm6.598-.232l-.073-.049.048-.073.073.037-.049.085zm-6.78-.098l-.035-.085.084-.037.036.086-.084.036zm6.936-.232l-.084-.036.036-.086.084.037-.036.085zm-7.104-.146l.049-.012-.049.012-.012-.049.084-.037.013.037-.085.049zm7.236-.195l-.084-.025.024-.085.084.024-.024.086zm-7.332-.11l-.024-.098.084-.024.024.085-.084.037zm7.429-.257l-.085-.012.012-.049h.049l.048.013-.024.048zm-7.525-.146l.048-.012-.048.012-.012-.049.084-.012.012.049-.084.012zm7.585-.207L25.084 21l.012-.085.084.012-.012.086zm-7.633-.16h.048-.048v-.048l.084-.012v.049l-.084.012zm7.657-.219l-.084-.012v-.098h.096l-.012.11zm-7.67-.11v-.097h.097v.097h-.096zm7.574-.268v-.049l.084-.012h-.048.048v.049l-.084.012zm-7.465-.085l-.084-.013.012-.097.084.012-.012.098zm7.429-.269l-.012-.049.084-.024-.048.012.048-.012.012.049-.084.024zm-7.369-.146h-.048l-.048-.013.012-.048.084.012v.049zm7.284-.208l-.024-.085.084-.025.025.098-.085.012zm-7.212-.085l-.084-.025.024-.085.084.024-.024.086zm7.116-.257l-.012-.036.084-.037-.048.012.048-.012.012.037-.084.036zm-6.995-.085l-.085-.037.037-.085.084.036-.036.086zm6.85-.256l-.036-.086.085-.049.036.086-.084.049zm-6.706-.074l-.072-.036.048-.086.072.05-.048.072zm6.538-.244l-.048-.073.072-.049.024.037-.036.024.036-.024.024.036-.072.05zm-6.357-.073l-.072-.049.024-.036.036.024-.036-.024.024-.037.072.049-.048.073zm6.152-.22l-.06-.073.072-.06.024.036-.036.024.036-.024.025.036-.06.061zm-5.911-.11l-.073-.06.024-.037.073.06-.024.038zm5.683-.17l-.037-.037.06-.061-.035.037.036-.025.024.037-.049.049zm-5.479-.061l-.06-.061.06-.061.06.06-.06.062zm5.226-.196l-.037-.024.06-.073-.035.036.036-.036.036.024-.06.073zm-4.973-.06l-.06-.074.072-.061.048.073-.06.061zm4.708-.172l-.072-.048.048-.074.072.061-.048.061zm-4.431-.048l-.048-.074.084-.048.048.073-.084.049zm4.13-.147l-.073-.049.049-.073.084.049-.06.073zm-3.829-.049l-.048-.073.084-.049.036.086-.072.036zm3.516-.134l-.036-.024.036-.086-.024.037.024-.037.036.025-.036.085zm-3.19-.037l-.037-.085.084-.037.036.086-.084.037zm2.865-.097l-.036-.012.024-.086-.012.049.012-.037.036.013-.024.073zm-2.493-.049l-.024-.037-.012-.048.036-.013.036.086-.036.012zm2.143-.061l-.084-.024.024-.086.097.025-.037.085zm-1.842-.024l-.024-.086.097-.024.024.085-.097.025zm1.505-.05l-.048-.011.012-.086-.012.049.012-.049.048.012-.012.086zm-1.155-.024l-.012-.085.096-.012.012.085-.096.012zm.794-.024h-.048v-.098h.048v.098zm-.397-.012v-.098h.048v.085l-.048.013zm.361-.037v-.049.05zm-.361 0v-.049.05zM21.291 21.794v-.05.05zm0 0h-.048v-.086h.048v.086zm.325-.025l-.024-.085.036-.012.012.049.012.048h-.036zm-.686-.048l.012-.05-.012.05-.048-.013.024-.085.048.012-.024.085zm1.035-.074l-.048-.073.036-.024.048.073-.036.024zm-1.324-.085l-.072-.061.06-.073.072.06-.06.074zm1.613-.147l-.072-.06.06-.074.072.061-.06.073zm-1.89-.122l-.06-.073.072-.049.048.073-.06.05zm2.107-.195l-.084-.037.012-.036.048.012.036.024-.012.037zm-2.3-.17l.048-.013-.048.012-.012-.049.085-.036.012.036-.085.05zm2.42-.184l-.084-.012.012-.049h.048l.048.012-.048-.012.048.012-.024.05zm-2.432-.195h-.048V20.5h.084v.049h-.036zm2.36-.171l-.012-.049.084-.024-.048.012.048-.012.012.049-.084.024zm-2.263-.183l-.049-.012-.048-.012.012-.037.085.024v.037zm2.167-.147l-.036-.085.084-.049.036.086-.084.048zm-2.047-.134l-.072-.049.024-.036.036.024-.036-.024.024-.037.072.049-.048.073zm1.854-.159l-.06-.06.06-.061.036.036-.036.037.036-.025.024.037-.06.037zm-1.637-.097l-.06-.073.072-.061.048.073-.06.06zm1.372-.134l-.036-.025.036-.085-.024.036.024-.036.036.024-.036.086zm-1.035-.086l-.024-.036-.012-.05.036-.011.036.073-.036.024zm.722-.049l-.048-.012v-.049l.012-.049-.012.05.012-.05.048.013-.012.097zm-.385-.024l-.012-.049v-.049h.048l.012.086-.048.012z" fill="#fff"/>
  <path d="M31.935 21.232h-1.253c.205-.354.41-.683.614-1.013-.204-.341-.409-.671-.614-1.013h1.253c.204.342.409.672.614 1.013-.205.33-.422.671-.614 1.013zM35.282 21.513c-.205.342-.41.671-.614 1.013.204.342.409.683.614 1.013H34.03c-.193-.33-.398-.671-.602-1.013.204-.33.409-.671.614-1.025.409.012.818.012 1.24.012zM31.224 22.526c.205.33.397.671.602 1.013h-1.252c-.193-.33-.397-.671-.602-1.013.205-.342.397-.696.614-1.025h1.252c-.204.354-.41.695-.614 1.025z" fill="#A1A1A1"/>
  <path d="M35.751 21.513h1.252l-.614 1.025c.205.33.398.671.614 1.013h-1.252c-.192-.33-.397-.671-.602-1.013.193-.342.398-.683.602-1.025zM30.2 19.182c.217.33.41.671.615 1.013-.205.354-.41.695-.614 1.025h-1.253l.614-1.025c-.204-.33-.397-.66-.602-.989v-.012l.013-.012H30.2zM32.392 19.194h1.252c.205.33.397.671.614 1.013-.205.33-.41.671-.614 1.013h-1.252l.614-1.025c-.205-.33-.397-.66-.614-1zM32.946 22.538c.193.33.397.66.59.989 0 .012 0 .012-.012.012l-.012.012h-1.204c-.024-.024-.048-.06-.072-.085-.181-.318-.374-.623-.554-.928.204-.342.409-.683.614-1.013h1.252c-.193.342-.398.671-.602 1.013z" fill="#A1A1A1"/>
  <path d="M27.817 20.158c-.049-.073-.085-.122-.12-.171-.157-.256-.302-.525-.458-.793h1.252c.205.33.41.671.614 1.013-.205.341-.41.683-.614 1.013h-1.24c.048-.098.096-.183.144-.269.109-.17.217-.342.313-.525.024-.048.06-.097.097-.158.012-.037.012-.073.012-.11z" fill="#A1A1A1"/>
  <path d="M28.455 15.252c1.03 0 1.866-.847 1.866-1.892 0-1.044-.836-1.891-1.866-1.891-1.03 0-1.866.847-1.866 1.891 0 1.045.835 1.892 1.866 1.892zM24.421 14.642c.865 0 1.566-.71 1.566-1.587 0-.876-.701-1.586-1.566-1.586-.864 0-1.565.71-1.565 1.586 0 .876.701 1.587 1.565 1.587zM18.16 14.642c.865 0 1.566-.71 1.566-1.587 0-.876-.701-1.586-1.566-1.586-.864 0-1.565.71-1.565 1.586 0 .876.701 1.587 1.565 1.587zM14.067 19.035c.864 0 1.565-.71 1.565-1.586 0-.876-.7-1.587-1.565-1.587-.864 0-1.565.71-1.565 1.587 0 .876.7 1.586 1.565 1.586zM14.067 25.26c.864 0 1.565-.71 1.565-1.587 0-.876-.7-1.586-1.565-1.586-.864 0-1.565.71-1.565 1.586 0 .877.7 1.587 1.565 1.587zM24.421 29.776c.865 0 1.566-.71 1.566-1.587 0-.876-.701-1.587-1.566-1.587-.864 0-1.565.71-1.565 1.587 0 .876.701 1.587 1.565 1.587zM18.16 29.776c.865 0 1.566-.71 1.566-1.587 0-.876-.701-1.587-1.566-1.587-.864 0-1.565.71-1.565 1.587 0 .876.701 1.587 1.565 1.587zM21.351 12.2c1.03 0 1.866-.846 1.866-1.89 0-1.046-.835-1.893-1.866-1.893-1.03 0-1.866.847-1.866 1.892s.835 1.892 1.866 1.892zM14.248 15.252c1.03 0 1.866-.847 1.866-1.892 0-1.044-.836-1.891-1.866-1.891-1.031 0-1.867.847-1.867 1.891 0 1.045.836 1.892 1.867 1.892zM28.455 29.532c1.03 0 1.866-.848 1.866-1.892 0-1.045-.836-1.892-1.866-1.892-1.03 0-1.866.847-1.866 1.892 0 1.044.835 1.892 1.866 1.892zM21.351 32.583c1.03 0 1.866-.847 1.866-1.892s-.835-1.892-1.866-1.892c-1.03 0-1.866.847-1.866 1.892s.835 1.892 1.866 1.892zM14.248 29.532c1.03 0 1.866-.848 1.866-1.892 0-1.045-.836-1.892-1.866-1.892-1.031 0-1.867.847-1.867 1.892 0 1.044.836 1.892 1.867 1.892zM11.358 22.33c1.03 0 1.866-.846 1.866-1.891s-.835-1.892-1.866-1.892c-1.03 0-1.866.847-1.866 1.892s.835 1.892 1.866 1.892zM25.445 17.327a.91.91 0 00.903-.916.91.91 0 00-.903-.915.91.91 0 00-.903.915.91.91 0 00.903.916zM21.351 15.618a.91.91 0 00.903-.915.91.91 0 00-.903-.916.91.91 0 00-.903.916.91.91 0 00.903.915zM17.378 17.327a.91.91 0 00.903-.916.91.91 0 00-.903-.915.91.91 0 00-.903.915.91.91 0 00.903.916zM15.692 21.354a.91.91 0 00.903-.915.91.91 0 00-.903-.915.91.91 0 00-.903.915.91.91 0 00.903.915zM9.371 26.236a.849.849 0 00.843-.854.849.849 0 00-.843-.854.849.849 0 00-.843.854c0 .472.378.854.843.854zM16.114 33.437a.849.849 0 00.843-.854.849.849 0 00-.843-.855.849.849 0 00-.843.855c0 .471.377.854.843.854zM26.227 33.437a.849.849 0 00.843-.854.849.849 0 00-.843-.855.849.849 0 00-.843.855c0 .471.378.854.843.854zM16.114 9.15a.849.849 0 00.843-.855.849.849 0 00-.843-.854.849.849 0 00-.843.854c0 .472.377.855.843.855zM31.465 11.346a1.03 1.03 0 001.023-1.037 1.03 1.03 0 00-1.023-1.037 1.03 1.03 0 00-1.024 1.037 1.03 1.03 0 001.024 1.037zM31.465 31.85a1.03 1.03 0 001.023-1.037 1.03 1.03 0 00-1.023-1.037 1.03 1.03 0 00-1.024 1.037 1.03 1.03 0 001.024 1.037zM11.358 11.346a1.03 1.03 0 001.023-1.037 1.03 1.03 0 00-1.023-1.037 1.03 1.03 0 00-1.024 1.037 1.03 1.03 0 001.024 1.037zM7.023 21.476a1.03 1.03 0 001.024-1.037 1.03 1.03 0 00-1.024-1.037A1.03 1.03 0 006 20.439a1.03 1.03 0 001.023 1.037zM21.351 7.075a1.03 1.03 0 001.024-1.038A1.03 1.03 0 0021.35 5a1.03 1.03 0 00-1.023 1.037 1.03 1.03 0 001.023 1.038zM21.351 36a1.03 1.03 0 001.024-1.037 1.03 1.03 0 00-1.024-1.038 1.03 1.03 0 00-1.023 1.038A1.03 1.03 0 0021.35 36zM11.358 31.85a1.03 1.03 0 001.023-1.037 1.03 1.03 0 00-1.023-1.037 1.03 1.03 0 00-1.024 1.037 1.03 1.03 0 001.024 1.037zM26.227 9.15a.849.849 0 00.843-.855.849.849 0 00-.843-.854.849.849 0 00-.843.854c0 .472.378.855.843.855zM9.371 16.106a.849.849 0 00.843-.854.849.849 0 00-.843-.854.849.849 0 00-.843.854c0 .472.378.854.843.854zM25.445 25.504a.91.91 0 00.903-.915.91.91 0 00-.903-.916.91.91 0 00-.903.916.91.91 0 00.903.915zM21.351 27.213a.91.91 0 00.903-.916.91.91 0 00-.903-.915.91.91 0 00-.903.915.91.91 0 00.903.916zM17.378 25.504a.91.91 0 00.903-.915.91.91 0 00-.903-.916.91.91 0 00-.903.916.91.91 0 00.903.915zM21.351 20.866a.303.303 0 00.301-.305.303.303 0 00-.3-.305.303.303 0 00-.302.305c0 .169.135.305.301.305z" fill="#fff"/>
  <path d="M21.411 20.561h3.372l2.408-2.44h7.585l3.371 3.416H42" stroke="#A1A1A1" stroke-width=".1" stroke-miterlimit="10"/>
  <circle cx="21" cy="21" r="20.6" stroke="#fff" stroke-width=".8"/>
</svg>
