<svg width="59" height="59" viewBox="0 0 59 59" fill="none" xmlns="http://www.w3.org/2000/svg">
    <path d="M29.5 59C45.7924 59 59 45.7924 59 29.5C59 13.2076 45.7924 0 29.5 0C13.2076 0 0 13.2076 0 29.5C0 45.7924 13.2076 59 29.5 59Z" fill="#1E1D2B"></path>
    <path d="M51.7796 19.9021C52.6598 22.3124 53.2074 24.8315 53.4072 27.3898C53.6043 29.9229 53.4702 32.4708 53.0082 34.9692C52.759 36.2289 52.4366 37.4729 52.0429 38.6951C51.6231 39.9221 51.1261 41.1212 50.5549 42.2854C49.9563 43.4564 49.2723 44.5818 48.5084 45.6523C47.7217 46.7275 46.8477 47.7362 45.8955 48.6681C45.6203 48.9022 45.2666 49.0233 44.9057 49.0069C44.5447 48.9906 44.2034 48.838 43.9505 48.58C43.6975 48.322 43.5518 47.9778 43.5426 47.6166C43.5334 47.2554 43.6614 46.9041 43.9009 46.6336C43.9541 46.5857 44.006 46.5419 44.0565 46.502C45.0204 45.795 45.9384 45.0275 46.8051 44.2042C47.6703 43.3546 48.4704 42.4412 49.1986 41.4716C49.927 40.4806 50.5689 39.429 51.1174 38.3281C51.6556 37.2101 52.0921 36.0458 52.4218 34.8496C53.0588 32.4308 53.2374 29.9142 52.9484 27.4297C52.658 24.9585 51.8969 22.5658 50.7065 20.3808C50.6319 20.2443 50.6146 20.0838 50.6583 19.9345C50.7021 19.7853 50.8034 19.6595 50.9398 19.585C51.0763 19.5104 51.2368 19.4931 51.3861 19.5368C51.5353 19.5806 51.6611 19.6818 51.7357 19.8183L51.7716 19.8941L51.7796 19.9021Z" fill="url(#paint0_linear)"></path>
    <path d="M40.6736 52.1825C41.6188 52.1825 42.385 51.4163 42.385 50.4711C42.385 49.526 41.6188 48.7598 40.6736 48.7598C39.7285 48.7598 38.9623 49.526 38.9623 50.4711C38.9623 51.4163 39.7285 52.1825 40.6736 52.1825Z" fill="url(#paint1_linear)"></path>
    <path d="M36.3016 54.0573C34.359 54.5608 32.3561 54.7931 30.3498 54.7474C29.8511 54.7474 29.3565 54.6996 28.8578 54.6637C28.3592 54.6277 27.8685 54.5599 27.3778 54.4762C26.3971 54.3332 25.4269 54.1254 24.4737 53.8538C22.5917 53.2957 20.7837 52.5136 19.0883 51.5242C17.4301 50.5656 15.8788 49.4329 14.4608 48.1453L14.421 48.1134C11.8303 45.7631 9.70791 42.9437 8.16592 39.804C7.39587 38.2321 6.78127 36.5887 6.33089 34.8973C5.8805 33.1874 5.60253 31.4367 5.50114 29.6714C5.48527 29.3805 5.58563 29.0951 5.78014 28.8782C5.97465 28.6612 6.24738 28.5304 6.53833 28.5146C6.82928 28.4987 7.11462 28.5991 7.33157 28.7936C7.54852 28.9881 7.67932 29.2608 7.69519 29.5518C7.69519 29.5917 7.69519 29.6355 7.69519 29.6754C7.59292 31.3021 7.67858 32.9352 7.9505 34.5422C8.77767 39.4658 11.4016 43.9077 15.3145 47.0084C16.7369 48.1141 18.2997 49.0263 19.9619 49.7211C21.5996 50.4028 23.3143 50.8824 25.0681 51.1492C25.5029 51.201 25.9337 51.2729 26.3725 51.3048C26.8114 51.3367 27.2422 51.3806 27.677 51.4005C28.1118 51.4205 28.5506 51.4005 28.9815 51.4244C29.4123 51.4484 29.8511 51.4244 30.2819 51.3806C32.0031 51.28 33.7105 51.0128 35.3801 50.5827C35.8409 50.4605 36.3313 50.5264 36.7435 50.7658C37.1557 51.0052 37.456 51.3985 37.5782 51.8593C37.7004 52.32 37.6345 52.8104 37.3951 53.2227C37.1557 53.6349 36.7624 53.9351 36.3016 54.0573Z" fill="url(#paint2_linear)"></path>
    <path d="M7.18048 25.9297C6.90354 25.9297 6.63283 25.8476 6.40257 25.6937C6.1723 25.5398 5.99284 25.3212 5.88686 25.0653C5.78088 24.8095 5.75315 24.5279 5.80718 24.2563C5.86121 23.9847 5.99456 23.7352 6.19038 23.5394C6.38621 23.3436 6.6357 23.2102 6.90731 23.1562C7.17892 23.1022 7.46046 23.1299 7.71631 23.2359C7.97217 23.3418 8.19085 23.5213 8.3447 23.7516C8.49856 23.9818 8.58068 24.2525 8.58068 24.5295C8.58068 24.9008 8.43316 25.257 8.17057 25.5196C7.90798 25.7822 7.55183 25.9297 7.18048 25.9297Z" fill="url(#paint3_linear)"></path>
    <path d="M46.0233 12.893C45.7778 13.1407 45.453 13.2941 45.1058 13.3262C44.7585 13.3583 44.4111 13.267 44.1244 13.0685H44.0965C42.8027 12.1618 41.4302 11.3728 39.9956 10.7109C38.5826 10.0646 37.1139 9.54791 35.6075 9.16713C32.6032 8.4382 29.4828 8.32152 26.4324 8.82406H26.3965C24.7333 9.09858 23.1053 9.55474 21.5417 10.1844C18.364 11.479 15.5364 13.5044 13.288 16.0963C12.1572 17.3967 11.1788 18.8221 10.3719 20.3448C10.1715 20.725 9.8314 21.0125 9.42323 21.147C9.01505 21.2814 8.57062 21.2523 8.18349 21.0657C7.79635 20.8791 7.4967 20.5496 7.34759 20.1466C7.19849 19.7435 7.21156 19.2983 7.38405 18.9047C8.19218 17.0698 9.22532 15.3426 10.4597 13.7627C11.702 12.1815 13.1282 10.754 14.7082 9.5102C16.3021 8.25464 18.0437 7.19896 19.8941 6.36672C21.7474 5.52563 23.7007 4.92504 25.7064 4.57957C27.5323 4.27286 29.3874 4.17649 31.2354 4.29235C33.0807 4.408 34.9072 4.73049 36.6806 5.25374C38.4427 5.78356 40.1354 6.52144 41.7229 7.45178C43.2886 8.38676 44.7352 9.50791 46.0312 10.7907C46.3086 11.0707 46.4636 11.4494 46.4621 11.8435C46.4606 12.2377 46.3028 12.6151 46.0233 12.893Z" fill="url(#paint4_linear)"></path>
    <path d="M48.608 16.7147C48.4054 16.7139 48.2076 16.6531 48.0395 16.54C47.8715 16.4268 47.7407 16.2664 47.6637 16.079C47.5867 15.8916 47.567 15.6856 47.607 15.487C47.647 15.2884 47.7449 15.1061 47.8885 14.9631C48.032 14.8201 48.2147 14.7229 48.4135 14.6837C48.6122 14.6444 48.8182 14.665 49.0053 14.7427C49.1924 14.8204 49.3522 14.9518 49.4647 15.1203C49.5772 15.2888 49.6372 15.4869 49.6372 15.6895C49.6372 15.8244 49.6106 15.9581 49.5588 16.0827C49.507 16.2074 49.4312 16.3206 49.3355 16.4158C49.2399 16.5111 49.1264 16.5865 49.0016 16.6378C48.8767 16.6891 48.743 16.7152 48.608 16.7147Z" fill="url(#paint5_linear)"></path>
    <path d="M29.855 31.0437L26.4403 34.4545L24.3659 36.5289L23.8114 37.0834L15.5857 38.4756L17.7438 36.3174L23.0255 31.0398L15.6296 23.6398L11.405 19.4153L21.9604 23.1452L22.4591 23.6398L23.6438 24.8246L23.6399 24.8286L26.4403 27.629L29.851 31.0398L29.855 31.0437Z" fill="url(#paint6_linear)"></path>
    <path d="M29.8561 31.0398V31.0448L29.8511 31.0398H29.8561Z" fill="#231F20"></path>
    <path d="M35.1286 36.3175H28.3032L26.7035 34.7178L30.1182 31.3071L35.1286 36.3175Z" fill="url(#paint7_linear)"></path>
    <path d="M29.8561 31.0398V31.0448L29.8511 31.0398H29.8561Z" fill="#231F20"></path>
    <path d="M47.595 31.6262C47.6188 33.0175 47.2836 34.3915 46.6216 35.6154C46.0432 36.7108 45.1946 37.6404 44.1563 38.3161C43.3409 38.8506 42.4197 39.203 41.4557 39.3493C40.6145 39.4805 39.7656 39.5565 38.9145 39.5767H38.4039L35.3921 36.5808H35.9027C37.6619 36.5808 39.3893 36.5808 39.7004 36.5489C40.336 36.5163 40.952 36.3183 41.4876 35.9744C42.1437 35.5606 42.6649 34.9645 42.9875 34.2591C43.3442 33.4174 43.513 32.508 43.4822 31.5943C43.5074 30.6681 43.3204 29.7484 42.9356 28.9056C42.5814 28.1592 42.0007 27.5435 41.2761 27.1464C40.7491 26.8581 40.1645 26.6905 39.5648 26.6557C39.1659 26.6557 36.3734 26.6238 34.2671 26.6158L33.7246 27.1623L30.1104 30.7765L26.6957 27.3618L30.4176 23.6399H38.2962C39.3506 23.6333 40.404 23.7053 41.4477 23.8553C42.4286 23.996 43.3668 24.3501 44.1962 24.8925C45.246 25.5633 46.1005 26.4989 46.6735 27.6051C47.3087 28.8486 47.6253 30.2303 47.595 31.6262Z" fill="url(#paint8_linear)"></path>
    <path d="M29.8561 31.0398V31.0448L29.8511 31.0398H29.8561Z" fill="#231F20"></path>
    <path d="M29.8561 31.0398V31.0448L29.8511 31.0398H29.8561Z" fill="#231F20"></path>
    <defs>
        <linearGradient id="paint0_linear" x1="44.1642" y1="22.2783" x2="59.1918" y2="27.211" gradientUnits="userSpaceOnUse">
            <stop stop-color="#65E3C2"></stop>
            <stop offset="1" stop-color="#B8E37D"></stop>
        </linearGradient>
        <linearGradient id="paint1_linear" x1="39.1762" y1="49.0806" x2="42.1176" y2="51.9418" gradientUnits="userSpaceOnUse">
            <stop stop-color="#65E3C2"></stop>
            <stop offset="1" stop-color="#B8E37D"></stop>
        </linearGradient>
        <linearGradient id="paint2_linear" x1="7.50818" y1="30.973" x2="29.7254" y2="57.4423" gradientUnits="userSpaceOnUse">
            <stop stop-color="#65E3C2"></stop>
            <stop offset="1" stop-color="#B8E37D"></stop>
        </linearGradient>
        <linearGradient id="paint3_linear" x1="5.9553" y1="23.3918" x2="8.3619" y2="25.7328" gradientUnits="userSpaceOnUse">
            <stop stop-color="#65E3C2"></stop>
            <stop offset="1" stop-color="#B8E37D"></stop>
        </linearGradient>
        <linearGradient id="paint4_linear" x1="9.69561" y1="5.83726" x2="20.5477" y2="30.2102" gradientUnits="userSpaceOnUse">
            <stop stop-color="#65E3C2"></stop>
            <stop offset="1" stop-color="#B8E37D"></stop>
        </linearGradient>
        <linearGradient id="paint5_linear" x1="47.7149" y1="14.8565" x2="49.477" y2="16.5705" gradientUnits="userSpaceOnUse">
            <stop stop-color="#65E3C2"></stop>
            <stop offset="1" stop-color="#B8E37D"></stop>
        </linearGradient>
        <linearGradient id="paint6_linear" x1="12.5582" y1="21.2022" x2="28.9147" y2="36.6032" gradientUnits="userSpaceOnUse">
            <stop stop-color="#65E3C2"></stop>
            <stop offset="1" stop-color="#B8E37D"></stop>
        </linearGradient>
        <linearGradient id="paint7_linear" x1="27.2301" y1="31.7768" x2="31.064" y2="38.0478" gradientUnits="userSpaceOnUse">
            <stop stop-color="#65E3C2"></stop>
            <stop offset="1" stop-color="#B8E37D"></stop>
        </linearGradient>
        <linearGradient id="paint8_linear" x1="28.002" y1="25.1336" x2="41.3069" y2="42.1068" gradientUnits="userSpaceOnUse">
            <stop stop-color="#65E3C2"></stop>
            <stop offset="1" stop-color="#B8E37D"></stop>
        </linearGradient>
    </defs>
</svg>
