<svg width="6" height="6" viewBox="0 0 6 6" fill="none" xmlns="http://www.w3.org/2000/svg">
<path d="M1.38517 1.07794C1.24222 1.07794 1.10514 1.02116 1.00406 0.920081C0.902982 0.819004 0.846198 0.681915 0.846198 0.538971C0.846198 0.396027 0.902982 0.258938 1.00406 0.157861C1.10514 0.0567843 1.24222 0 1.38517 0H4.619C4.76194 0 4.89903 0.0567843 5.00011 0.157861C5.10118 0.258938 5.15797 0.396027 5.15797 0.538971V3.7728C5.15797 3.91574 5.10118 4.05283 5.00011 4.15391C4.89903 4.25498 4.76194 4.31177 4.619 4.31177C4.47605 4.31177 4.33896 4.25498 4.23788 4.15391C4.13681 4.05283 4.08002 3.91574 4.08002 3.7728V1.84005L0.913376 5.00657C0.811725 5.10474 0.67558 5.15907 0.534264 5.15784C0.392947 5.15661 0.257767 5.09993 0.157837 5C0.0579073 4.90007 0.00122443 4.76489 -3.57164e-06 4.62357C-0.00123157 4.48226 0.0530936 4.34611 0.151272 4.24446L3.31792 1.07794H1.38517Z" fill="white" fill-opacity="0.5"/>
</svg>
