<svg width="10" height="10" viewBox="0 0 10 10" fill="none" xmlns="http://www.w3.org/2000/svg">
<path fillRule="evenodd" clipRule="evenodd" d="M9.21321 0.727863C9.47356 0.988212 9.47356 1.41032 9.21321 1.67067L5.91338 4.9705L9.21322 8.27034C9.47357 8.53069 9.47357 8.9528 9.21322 9.21315C8.95287 9.4735 8.53076 9.4735 8.27041 9.21315L4.97057 5.91331L1.67074 9.21314C1.41039 9.47349 0.988283 9.47349 0.727934 9.21314C0.467585 8.9528 0.467585 8.53069 0.727934 8.27034L4.02777 4.97051L0.727939 1.67068C0.467589 1.41033 0.467591 0.98822 0.72794 0.72787C0.988289 0.467521 1.4104 0.467521 1.67075 0.72787L4.97057 4.0277L8.27041 0.727864C8.53076 0.467515 8.95287 0.467515 9.21321 0.727863Z" fill="white" fill-opacity="0.6"/>
</svg>
