<svg width="20" height="13" viewBox="0 0 20 13" fill="none" xmlns="http://www.w3.org/2000/svg">
<path d="M16.8521 1.64005C14.7127 0.0967536 12.7192 0.024693 12.3423 0.024693L12.0992 0.25889C14.7856 1.01553 16.1106 2.19252 16.1471 2.22855C9.03594 -1.23036 3.15859 2.11445 3.02487 2.14448C3.02487 2.14448 4.34378 0.859396 7.24903 0.174819L7.07885 0.000672778C7.07885 0.000672778 4.87864 -0.0833979 2.4961 1.62804C2.4961 1.62804 0.119629 5.65743 0.119629 10.6236C0.119629 10.6236 1.43854 12.8515 5.04882 12.9356C5.04882 12.9356 5.5776 12.251 6.11246 11.6505C4.11282 11.062 3.31661 9.891 3.2923 9.85497C3.30446 9.86097 3.48072 9.94504 3.72991 10.1132H3.80893C3.85147 10.1132 3.86971 10.1312 3.88794 10.1492V10.1552C3.90617 10.1792 3.92441 10.1912 3.96695 10.1912C8.28228 11.9207 11.8865 12.323 16.0012 9.75889C15.9769 9.79492 15.1807 10.9659 13.096 11.5544C13.5336 12.1489 14.1414 12.8335 14.1414 12.8335C17.7578 12.7554 19.1618 10.5275 19.2408 10.6236C19.2408 5.67545 16.8521 1.64005 16.8521 1.64005ZM6.63516 9.08031C5.71131 9.08031 4.96373 8.31167 4.96373 7.36887C4.96373 6.42008 5.71131 5.65743 6.63516 5.65743L6.64124 5.65143C7.56508 5.65143 8.30659 6.42008 8.30659 7.36287C8.30659 8.31167 7.559 9.08031 6.63516 9.08031ZM12.6219 9.08031C11.6981 9.08031 10.9505 8.31167 10.9505 7.36887C10.9505 6.42008 11.7041 5.65743 12.6219 5.65743V5.65143C13.5458 5.65143 14.2933 6.42008 14.2933 7.36287C14.2994 8.31167 13.5458 9.08031 12.6219 9.08031Z" fill="#614E56"/>
</svg>
