<svg width="12" height="22" viewBox="0 0 12 22" fill="none" xmlns="http://www.w3.org/2000/svg">
<path d="M8.11558 3.36377C9.31164 3.59332 10.2928 4.05811 11.135 4.72715C11.3738 4.91678 11.402 5.25823 11.2002 5.48309L10.1724 6.62827C9.98122 6.84123 9.64974 6.87723 9.41074 6.71329C8.48565 6.07862 7.52683 5.77592 6.42589 5.77592C5.1612 5.77592 4.36495 6.28642 4.36495 7.19634C4.36495 8.12843 4.95044 8.50576 7.36277 9.21599C10.3137 10.1038 12 11.2801 12 13.9878C12 16.1351 10.5671 17.7832 8.08122 18.4018C7.83592 18.4628 7.66714 18.6762 7.66714 18.9166V21.4652C7.66714 21.7606 7.41445 22 7.10277 22H5.5382C5.22648 22 4.97383 21.7605 4.97383 21.4652V19.1064C4.97383 18.8405 4.76788 18.6122 4.48971 18.5776C2.72408 18.3579 1.35195 17.7241 0.323815 16.9107C0.0789653 16.717 -0.124086 16.5566 0.090571 16.3331L1.49534 14.8703C1.80475 14.5482 1.95412 14.7085 2.18574 14.8783C3.19175 15.6155 4.33394 16.0298 5.67647 16.0298C7.19875 16.0298 8.11223 15.364 8.11223 14.2541C8.11223 13.1889 7.55 12.7005 5.30174 12.0348C1.7887 11.0138 0.547358 9.63778 0.547358 7.46266C0.547358 5.32745 2.15164 3.82402 4.53491 3.3435C4.79232 3.2916 4.97383 3.35174 4.97383 3.10231V0.239506C4.97383 -0.0558949 5.22653 0.0052389 5.5382 0.0052389H7.10277C7.41449 0.0052389 7.66714 0.244705 7.66714 0.540063V2.84184C7.66714 3.09454 7.85423 3.31364 8.11558 3.36377Z" fill="url(#paint0_linear)"/>
<defs>
<linearGradient id="paint0_linear" x1="12" y1="11" x2="4.09598e-08" y2="11" gradientUnits="userSpaceOnUse">
<stop stop-color="#FFB469"/>
<stop offset="1" stop-color="#FFCA79"/>
</linearGradient>
</defs>
</svg>
