<svg width="16" height="16" viewBox="0 0 16 16" fill="none" xmlns="http://www.w3.org/2000/svg">
<path fill-rule="evenodd" clip-rule="evenodd" d="M4.00016 14.6668H12.0002C13.5335 14.6668 14.6668 13.4668 14.6668 12.0002V4.00016C14.6668 2.5335 13.4668 1.3335 12.0002 1.3335H4.00016C2.53349 1.3335 1.3335 2.5335 1.3335 4.00016V12.0002C1.3335 13.4668 2.53349 14.6668 4.00016 14.6668ZM5.00017 8.66679C5.00017 8.48269 4.85093 8.33346 4.66683 8.33346C4.48274 8.33346 4.3335 8.48269 4.3335 8.66679V11.3335C4.3335 11.5176 4.48274 11.6668 4.66683 11.6668C4.85093 11.6668 5.00017 11.5176 5.00017 11.3335V8.66679ZM8.00017 4.33345C8.18426 4.33345 8.3335 4.48269 8.3335 4.66679V11.3335C8.3335 11.5176 8.18426 11.6668 8.00017 11.6668C7.81607 11.6668 7.66683 11.5176 7.66683 11.3335V4.66679C7.66683 4.48269 7.81607 4.33345 8.00017 4.33345ZM11.6668 6.66679C11.6668 6.48269 11.5176 6.33345 11.3335 6.33345C11.1494 6.33345 11.0002 6.48269 11.0002 6.66679V11.3335C11.0002 11.5176 11.1494 11.6668 11.3335 11.6668C11.5176 11.6668 11.6668 11.5176 11.6668 11.3335V6.66679Z" fill="url(#paint0_linear)"/>
<defs>
<linearGradient id="paint0_linear" x1="14.6668" y1="8.00017" x2="1.3335" y2="8.00017" gradientUnits="userSpaceOnUse">
<stop stop-color="#EC6A46"/>
<stop offset="1" stop-color="#F4B740"/>
</linearGradient>
</defs>
</svg>
