<svg width="20" height="14" viewBox="0 0 20 14" fill="none" xmlns="http://www.w3.org/2000/svg">
<path d="M16.8521 1.87394C14.7127 0.33064 12.7192 0.25858 12.3423 0.25858L12.0992 0.492777C14.7856 1.24941 16.1106 2.4264 16.1471 2.46243C9.03594 -0.996477 3.15859 2.34834 3.02487 2.37836C3.02487 2.37836 4.34378 1.09328 7.24903 0.408706L7.07885 0.234559C7.07885 0.234559 4.87864 0.150489 2.4961 1.86193C2.4961 1.86193 0.119629 5.89132 0.119629 10.8575C0.119629 10.8575 1.43854 13.0854 5.04882 13.1694C5.04882 13.1694 5.5776 12.4849 6.11246 11.8844C4.11282 11.2959 3.31661 10.1249 3.2923 10.0889C3.30446 10.0949 3.48072 10.1789 3.72991 10.3471H3.80893C3.85147 10.3471 3.86971 10.3651 3.88794 10.3831V10.3891C3.90617 10.4131 3.92441 10.4251 3.96695 10.4251C8.28228 12.1546 11.8865 12.5569 16.0012 9.99277C15.9769 10.0288 15.1807 11.1998 13.096 11.7883C13.5336 12.3828 14.1414 13.0674 14.1414 13.0674C17.7578 12.9893 19.1618 10.7614 19.2408 10.8575C19.2408 5.90934 16.8521 1.87394 16.8521 1.87394ZM6.63516 9.3142C5.71131 9.3142 4.96373 8.54555 4.96373 7.60276C4.96373 6.65396 5.71131 5.89132 6.63516 5.89132L6.64124 5.88532C7.56508 5.88532 8.30659 6.65396 8.30659 7.59676C8.30659 8.54555 7.559 9.3142 6.63516 9.3142ZM12.6219 9.3142C11.6981 9.3142 10.9505 8.54555 10.9505 7.60276C10.9505 6.65396 11.7041 5.89132 12.6219 5.89132V5.88532C13.5458 5.88532 14.2933 6.65396 14.2933 7.59676C14.2994 8.54555 13.5458 9.3142 12.6219 9.3142Z" fill="#614E56"/>
</svg>
