<svg width="18" height="18" viewBox="0 0 18 18" fill="none" xmlns="http://www.w3.org/2000/svg">
<path d="M9 0C4.02991 0 0 4.02991 0 9C0 13.9701 4.02991 18 9 18C13.9701 18 18 13.9701 18 9C18 4.02991 13.9701 0 9 0ZM14.1429 5.09665L13.3232 5.88214C13.2509 5.93638 13.2167 6.02478 13.2308 6.11116V11.8908C13.2167 11.9792 13.2509 12.0676 13.3232 12.1199L14.1268 12.9054V13.0801H10.0929V12.9134L10.9225 12.1078C11.0049 12.0254 11.0049 12.0013 11.0049 11.8788V7.20201L8.69464 13.06H8.38326L5.69531 7.20201V11.1295C5.67121 11.2942 5.72946 11.4609 5.84598 11.5795L6.92679 12.8873V13.0621H3.85714V12.8873L4.93795 11.5795C4.99489 11.5206 5.03727 11.4493 5.06169 11.3712C5.08611 11.293 5.09189 11.2102 5.07857 11.1295V6.58929C5.09263 6.46272 5.04442 6.34018 4.94799 6.25379L3.98772 5.09665V4.92188H6.97098L9.27321 9.97433L11.3002 4.92589H14.1429V5.09665Z" fill="#614E56"/>
</svg>
