<svg width="25" height="26" viewBox="0 0 25 26" fill="none" xmlns="http://www.w3.org/2000/svg">
<path fill-rule="evenodd" clip-rule="evenodd" d="M23.8753 7.52958L23.0713 6.17946C22.3911 5.03706 20.8838 4.64296 19.7017 5.29846C19.139 5.61924 18.4676 5.71025 17.8355 5.55142C17.2034 5.39259 16.6625 4.99696 16.3322 4.45178C16.1196 4.10525 16.0054 3.71055 16.0011 3.30761C16.0203 2.66159 15.7684 2.03556 15.3029 1.57215C14.8374 1.10873 14.1979 0.84739 13.5301 0.847656H11.9103C11.2561 0.847649 10.6288 1.09995 10.1672 1.54874C9.70571 1.99753 9.44801 2.6058 9.45115 3.23896C9.43176 4.54622 8.33111 5.59608 6.98014 5.59594C6.56376 5.59176 6.15591 5.48124 5.79783 5.27557C4.61574 4.62008 3.10843 5.01418 2.42827 6.15658L1.56519 7.52958C0.885853 8.67055 1.28755 10.1283 2.46374 10.7904C3.22828 11.2176 3.69926 12.007 3.69926 12.8614C3.69926 13.7157 3.22828 14.5052 2.46374 14.9323C1.28904 15.59 0.886908 17.0442 1.56519 18.1818L2.38098 19.5433C2.69966 20.0998 3.23435 20.5104 3.86674 20.6844C4.49913 20.8583 5.17707 20.7812 5.75054 20.4701C6.3143 20.1517 6.98611 20.0645 7.61664 20.2278C8.24717 20.3911 8.78417 20.7914 9.10828 21.3396C9.32081 21.6862 9.43501 22.0809 9.43933 22.4838C9.43933 23.8045 10.5456 24.8751 11.9103 24.8751H13.5301C14.8902 24.8751 15.9946 23.8115 16.0011 22.4953C15.998 21.8601 16.2573 21.2501 16.7214 20.801C17.1855 20.3518 17.8158 20.1009 18.4721 20.104C18.8875 20.1147 19.2937 20.2248 19.6544 20.4243C20.8334 21.0817 22.3398 20.693 23.024 19.5548L23.8753 18.1818C24.2048 17.6344 24.2952 16.9826 24.1265 16.3705C23.9579 15.7585 23.5441 15.2368 22.9767 14.9209C22.4093 14.605 21.9955 14.0833 21.8269 13.4712C21.6582 12.8592 21.7487 12.2073 22.0782 11.66C22.2924 11.298 22.6026 10.9978 22.9767 10.7904C24.1458 10.1287 24.5466 8.67943 23.8753 7.54102V7.52958Z" fill="#614E56" stroke="#614E56" stroke-width="1.5" stroke-linecap="round" stroke-linejoin="round"/>
<ellipse cx="12.7261" cy="12.8616" rx="3.40503" ry="3.29519" stroke="#FEFFFF" stroke-width="1.5" stroke-linecap="round" stroke-linejoin="round"/>
</svg>
