<svg width="16" height="12" viewBox="0 0 12 12" fill="none" xmlns="http://www.w3.org/2000/svg">
<path fillRule="evenodd" clipRule="evenodd" d="M5.99999 0C6.36818 0 6.66666 0.298476 6.66666 0.666667V5.33333H11.3333C11.7015 5.33333 12 5.63181 12 6C12 6.36819 11.7015 6.66667 11.3333 6.66667H6.66666V11.3333C6.66666 11.7015 6.36818 12 5.99999 12C5.6318 12 5.33333 11.7015 5.33333 11.3333V6.66667H0.666665C0.298476 6.66667 0 6.36819 0 6C0 5.63181 0.298476 5.33333 0.666665 5.33333H5.33333V0.666667C5.33333 0.298476 5.6318 0 5.99999 0Z" fill="url(#paint0_linear)"/>
<defs>
<linearGradient id="paint0_linear" x1="12" y1="6" x2="4.09598e-08" y2="6" gradientUnits="userSpaceOnUse">
<stop stop-color="#5394AA"/>
<stop offset="1" stop-color="#10CF81"/>
</linearGradient>
</defs>
</svg>
