<svg width="18" height="20" viewBox="0 0 18 20" fill="none" xmlns="http://www.w3.org/2000/svg">
<path d="M17.5344 12.4759C17.5344 12.6634 17.5058 12.851 17.4544 13.0329C17.3859 13.2545 17.323 13.4818 17.2545 13.7035C17.2259 13.7888 17.1688 13.8626 17.1288 13.9422C17.1002 13.9365 17.1002 13.9365 17.0717 13.9365C17.0545 13.8683 17.0317 13.8058 17.0202 13.7376C16.946 13.2772 16.7174 12.9135 16.3518 12.6236C15.9234 12.2826 15.432 12.061 14.935 11.8507C14.3809 11.612 13.8153 11.379 13.2611 11.1346C12.747 10.9072 12.2671 10.6287 11.8557 10.2366C11.3244 9.73074 11.1359 9.10555 11.2273 8.3667C11.2902 8.38943 11.3416 8.38943 11.3701 8.41785C11.7415 8.74181 12.1985 8.87253 12.667 8.96347C13.2326 9.07145 13.8096 9.14534 14.3751 9.25333C14.9522 9.36131 15.512 9.52613 16.0319 9.82168C16.7974 10.265 17.2773 10.9015 17.4773 11.7597C17.5115 11.9075 17.5401 12.1519 17.5401 12.3054V12.4759H17.5344Z" fill="#614E56"/>
<path d="M11.8442 19.5631C11.4272 19.3472 11.1473 18.972 10.9416 18.5117C10.8045 18.2105 10.6731 17.9092 10.5188 17.6137C10.2675 17.1306 9.89041 16.7896 9.34769 16.6532C8.79924 16.5168 8.26223 16.8464 8.18796 17.3579C8.10798 17.8922 8.72498 18.3923 9.23343 18.2161C9.50765 18.1195 9.66761 17.8694 9.63905 17.5739C9.61048 17.3011 9.43338 17.1306 9.13059 17.0908C8.96492 17.0681 8.83352 17.1249 8.72498 17.2443C8.68499 17.2897 8.65071 17.3409 8.59358 17.4148C8.61072 17.0397 8.93064 16.8294 9.30198 16.9146C9.93612 17.0624 10.1589 17.841 9.70189 18.3298C9.38196 18.6765 8.83352 18.7561 8.36506 18.5117C8.24509 18.4492 8.13654 18.3639 8.03371 18.2787C7.91374 18.1764 7.72521 18.0002 7.62238 17.8865C7.13678 17.3409 6.5255 17.0397 5.79995 16.9658C5.70283 16.9544 5.60571 16.926 5.46289 16.8919C5.81138 16.5622 6.14844 16.3065 6.51978 16.0962C7.16534 15.7211 7.8509 15.4312 8.59929 15.3914C9.45623 15.3516 10.2618 15.5108 10.8845 16.1758C11.2387 16.5566 11.3644 17.0226 11.4558 17.5114C11.5129 17.8069 11.5586 18.1081 11.6157 18.4037C11.7757 19.2449 12.307 19.5006 13.1239 19.3528C13.2839 19.3244 13.4439 19.2676 13.6095 19.2392C13.3639 19.4892 13.0668 19.6313 12.724 19.6882C12.724 19.6882 12.724 19.6882 12.7183 19.6882C12.4155 19.7336 12.107 19.6995 11.8442 19.5631Z" fill="#614E56"/>
<path d="M7.07398 7.30337C6.88545 7.09308 6.69121 6.88279 6.50268 6.6725C5.80571 5.91091 5.11444 5.14931 4.42318 4.38772C3.7719 3.67729 3.12063 2.96685 2.46935 2.25073C1.94376 1.68238 0.309863 -0.0113101 0.292725 5.69404e-05C0.327002 0.0512085 0.355567 0.10236 0.395557 0.147828C0.709769 0.534307 1.03541 0.920785 1.35533 1.30726C2.05231 2.16547 2.74929 3.02368 3.44626 3.87621C4.13182 4.71168 4.81737 5.54148 5.50292 6.37127C5.85141 6.79753 6.1999 7.21811 6.53696 7.65006C6.69121 7.84898 6.67978 7.99675 6.47983 8.13316C6.07421 8.41733 5.54862 8.50827 5.20585 8.01949C4.98876 7.70689 4.77166 7.39998 4.566 7.08171C4.00042 6.21781 3.44626 5.35392 2.88068 4.49003C2.84641 4.43319 2.79499 4.38773 2.74929 4.33657C2.92067 4.75147 3.13777 5.13795 3.34914 5.51874C3.80618 6.34285 4.26321 7.17264 4.72596 7.99675C4.8745 8.25251 4.86307 8.46848 4.65169 8.69014C4.41746 8.93453 4.29178 9.23576 4.23465 9.57108C4.16609 9.96325 4.10325 10.3554 4.00042 10.7362C3.8176 11.4069 3.38342 11.9411 2.97209 12.481C2.72643 12.805 2.4465 13.1119 2.2694 13.4757C1.87521 14.2941 2.0466 15.1011 2.4465 15.8684C2.6693 16.2947 2.92639 16.6982 3.18918 17.1415C3.27488 17.1302 4.42889 16.7891 4.86878 16.5959C5.10873 16.4936 5.32582 16.3231 5.51435 16.1412C6.1142 15.5899 6.06279 14.834 5.41723 14.3395C5.20013 14.1747 4.97162 14.0156 4.76024 13.8451C4.22322 13.4188 4.07469 12.8334 4.34319 12.1969C4.45174 11.9468 4.566 11.6967 4.68026 11.4466C4.83451 11.1113 4.94305 10.7646 4.97733 10.3895C4.99447 10.1338 5.02875 9.88368 5.08016 9.6336C5.13729 9.34374 5.32582 9.17324 5.62289 9.12777C5.75429 9.11072 5.88569 9.09367 6.01708 9.06525C6.47412 8.96863 6.89116 8.79813 7.15967 8.3946C7.42246 8.00244 7.3939 7.65574 7.07398 7.30337ZM3.25202 14.8454C3.17776 14.8852 3.0635 14.8908 2.99494 14.8624C2.94353 14.8397 2.90353 14.709 2.92639 14.6521C2.9778 14.5157 2.96066 14.4021 2.89211 14.3054C2.86354 14.2713 2.86926 14.2202 2.89782 14.1861C2.98352 14.0952 3.08635 14.1179 3.18347 14.1577C3.32629 14.2145 3.40056 14.3282 3.41199 14.4873C3.4177 14.6351 3.38913 14.7772 3.25202 14.8454Z" fill="#614E56"/>
<path d="M7.02818 3.94482C7.86226 3.94482 8.60494 4.34267 9.21623 4.90534C9.43332 5.10426 9.63898 5.31455 9.83894 5.52484C9.93606 5.63283 10.0846 5.6783 10.2274 5.64988C11.1186 5.48506 11.9927 5.54757 12.8611 5.7806C13.3524 5.91132 13.798 6.13866 14.2265 6.4001C14.3579 6.47967 14.4264 6.59334 14.455 6.74111C14.5407 7.16738 14.5464 7.58796 14.3521 7.9858C14.3464 8.00285 14.335 8.0199 14.3293 8.03695C14.2722 8.17336 14.295 8.29839 14.4207 8.38933C14.5464 8.48027 14.6778 8.45185 14.7863 8.36091C14.9749 8.21314 15.0606 8.00285 15.1291 7.78688C15.1748 7.64479 15.2148 7.5027 15.2548 7.35493C15.7347 7.59932 16.4202 8.90085 16.3917 9.52035C16.3402 9.46351 16.3003 9.42941 16.2717 9.38395C15.9918 8.952 15.5747 8.71897 15.0777 8.64509C14.6207 8.58257 14.1522 8.54279 13.6894 8.52573C12.9296 8.49163 12.2041 8.34386 11.5243 7.99717C11.1415 7.80393 10.833 7.5027 10.5588 7.17306C10.0617 6.57629 9.58757 5.96247 9.08483 5.37707C8.53067 4.72915 7.85655 4.22332 6.99961 4.04144C6.93106 4.02439 6.8625 4.03008 6.79395 4.00166C6.80537 3.97893 6.93106 3.94482 7.02818 3.94482Z" fill="#614E56"/>
<path d="M13.3867 11.6577C14.2208 12.1579 15.072 12.5216 15.7919 13.0956C16.5745 13.7151 16.9287 14.5222 16.8716 15.5282C16.8088 16.5967 16.3346 17.4151 15.4605 18.0176C15.352 18.0914 15.2206 18.1426 15.0378 18.2335C15.0892 18.0801 15.1177 17.9891 15.152 17.9039C15.4148 17.2673 15.3862 16.6421 15.0549 16.0454C14.7235 15.4543 14.3522 14.8803 13.9866 14.3062C13.7352 13.9084 13.4896 13.5049 13.3467 13.0502C13.2382 12.7092 13.2439 12.3625 13.2725 12.0158C13.2839 11.9135 13.3353 11.8112 13.3867 11.6577Z" fill="#614E56"/>
<path d="M6.51415 4.42822C6.98262 4.45096 7.34824 4.63283 7.62818 4.95679C7.771 5.12161 7.87383 5.33758 7.9481 5.54219C8.04522 5.80932 8.10806 6.08781 8.16519 6.3663C8.23946 6.74141 8.388 7.0881 8.59938 7.40638C8.62794 7.44617 8.65079 7.48595 8.67365 7.52573C8.75363 7.69624 8.70792 7.79854 8.52511 7.78149C8.3423 7.76444 8.14805 7.71897 7.98809 7.63372C7.5939 7.42912 7.27969 7.12789 7.05117 6.74709C6.68554 6.13327 6.47988 5.47399 6.48559 4.75787C6.48559 4.64988 6.50273 4.55326 6.51415 4.42822Z" fill="#614E56"/>
<path d="M12.5185 11.3052C12.7298 11.5268 12.8727 11.7883 12.9241 12.0895C13.1126 13.2433 12.4785 14.0333 11.4901 14.3345C11.1588 14.4368 10.8046 14.4936 10.4561 14.5107C9.7077 14.5505 8.96502 14.5959 8.24519 14.8119C8.23948 14.8119 8.22805 14.8005 8.2052 14.7835C8.40515 14.6073 8.63367 14.4652 8.87933 14.4027C9.36493 14.272 9.85624 14.1697 10.3418 14.056C10.7018 13.9707 11.0731 13.9196 11.4159 13.7946C12.3128 13.4649 12.747 12.6408 12.5413 11.7087C12.5128 11.5837 12.4899 11.4586 12.4613 11.3336C12.4899 11.3165 12.4899 11.3222 12.5185 11.3052Z" fill="#614E56"/>
<path d="M8.74227 9.71925C8.59373 9.37824 8.25667 9.17363 7.85105 9.17931C7.50828 9.185 7.21692 9.40666 7.08552 9.75335C6.89699 10.2649 7.12551 10.6172 7.71966 10.6116C7.99959 10.5831 8.34236 10.549 8.61658 10.2876C8.78797 10.1285 8.82796 9.92386 8.74227 9.71925ZM7.91961 9.8727C7.71394 9.8727 7.53113 9.75335 7.53113 9.61695C7.53113 9.48622 7.71394 9.3555 7.90818 9.34414C8.11956 9.33277 8.34808 9.47486 8.34236 9.62263C8.34236 9.75903 8.14812 9.8727 7.91961 9.8727Z" fill="#614E56"/>
<path d="M14.7235 5.22355C14.7293 5.69528 15.0435 6.0306 15.3577 6.34888C15.5119 6.50233 15.5462 6.56485 15.6947 6.71831C15.7576 6.78651 15.9575 7.05932 15.9461 7.07637C15.7119 6.8945 15.4776 6.71831 15.2491 6.5478C15.1577 6.47392 15.0149 6.53075 14.9978 6.64442C14.992 6.68421 14.992 6.72399 14.9863 6.76378C14.9635 7.01953 14.8378 7.74702 14.7464 7.84933C14.7464 7.63335 14.7921 7.43443 14.8035 7.20709C14.8435 6.42277 14.5407 5.89988 13.8266 5.61002C13.6438 5.5134 13.4496 5.45657 13.301 5.32585C13.3582 5.33153 13.5752 5.38268 13.6324 5.39973C13.9009 5.48499 14.0151 5.53045 14.2836 5.61571C14.4208 5.66118 14.5407 5.57592 14.5579 5.43952C14.5807 5.25196 14.5921 5.06441 14.6207 4.87685C14.6321 4.7916 14.6664 4.70635 14.695 4.62109C14.7121 4.62109 14.7235 5.03031 14.7235 5.22355Z" fill="#614E56"/>
</svg>
